<?xml version="1.0" standalone="no"?>
<!DOCTYPE svg PUBLIC "-//W3C//DTD SVG 1.1//EN" "http://www.w3.org/Graphics/SVG/1.1/DTD/svg11.dtd">
<svg xmlns="http://www.w3.org/2000/svg">
<metadata>Copyright (C) 2014 by original authors @ fontello.com</metadata>
<defs>
<font id="fontello" horiz-adv-x="1000" >
<font-face font-family="fontello" font-weight="400" font-stretch="normal" units-per-em="1000" ascent="850" descent="-150" />
<missing-glyph horiz-adv-x="1000" />
<glyph glyph-name="plus" unicode="&#xe800;" d="m550 400q30 0 30-50t-30-50l-210 0 0-210q0-30-50-30t-50 30l0 210-210 0q-30 0-30 50t30 50l210 0 0 210q0 30 50 30t50-30l0-210 210 0z" horiz-adv-x="580" />
<glyph glyph-name="search" unicode="&#xe801;" d="m772 78q30-34 6-62l-46-46q-36-32-68 0l-190 190q-74-42-156-42-128 0-223 95t-95 223 90 219 218 91 224-95 96-223q0-88-46-162z m-678 358q0-88 68-156t156-68 151 63 63 153q0 88-68 155t-156 67-151-63-63-151z" horiz-adv-x="789" />
<glyph glyph-name="alert" unicode="&#xe802;" d="m1245-17l-526 812c-47 73-124 73-172 0l-526-812c-47-73-13-133 76-133h1073c89 0 123 60 75 133z m-504-39h-215v157h215v-157z m-53 232h-111l-51 239v210h215v-210h0l-53-239z" horiz-adv-x="1267" />
<glyph glyph-name="comment" unicode="&#xe803;" d="m819 850h-545c-150 0-273-123-273-273v-181c0-150 123-273 273-273h45v-273l312 273h188c151 0 273 123 273 273v181c0 150-122 273-273 273z m-545-454c-50 0-91 40-91 90s41 91 91 91c50 0 91-40 91-91s-41-90-91-90z m273 0c-50 0-91 40-91 90s41 91 91 91c50 0 91-40 91-91s-41-90-91-90z m272 0c-50 0-90 40-90 90s40 91 90 91 91-40 91-91-40-90-91-90z" horiz-adv-x="1100" />
<glyph glyph-name="menu-arrow-right" unicode="&#xe804;" d="m0 850l500-500-500-500v1000z" horiz-adv-x="500" />
<glyph glyph-name="flag" unicode="&#xe805;" d="m922 642c0 0-250 41-417 41-167 0-250 84-250 84v83h-83v-1000h83v500c0 0 83-83 250-83 167 0 417-42 417-42l-125 208 125 209z" horiz-adv-x="1100" />
<glyph glyph-name="full-screen" unicode="&#xe806;" d="m852 417v-469h-754v754h469l-78 79-20 20h-469v-951h951v469l-20 20-79 78z m148 433v-441l-152 152-344-345-138 138 345 344-152 152h441z" horiz-adv-x="1000" />
<glyph glyph-name="mail" unicode="&#xe807;" d="m761 266l709 582c-4 1-7 2-12 2h-1395c-3 0-7-1-11-2l709-582z m761 522c0 6-2 12-4 18l-502-413 503-496c1 5 3 10 3 15v876z m-1518 18c-2-6-4-12-4-18v-876c0-5 2-10 3-15l504 496-503 413z m963-453l-186-152c-6-5-13-7-20-7-7 0-14 2-20 7l-186 152-507-500c5-1 10-3 15-3h1395c6 0 11 2 16 3l-507 500z" horiz-adv-x="1522" />
<glyph glyph-name="menu-toggle" unicode="&#xe808;" d="m1344 636h-1238c-58 0-106 48-106 107 0 59 48 107 106 107h1238c59 0 106-48 106-107 0-59-47-107-106-107l0 0z m0-393h-1238c-58 0-106 48-106 107 0 59 48 107 106 107h1238c59 0 106-48 106-107 0-59-47-107-106-107l0 0z m0-393h-1238c-58 0-106 48-106 107 0 59 48 107 106 107h1238c59 0 106-48 106-107 0-59-47-107-106-107l0 0z" horiz-adv-x="1450" />
<glyph glyph-name="multi-page" unicode="&#xe809;" d="m0 408h442v442h-442v-442z m124 318h194v-194h-194v194z m-124-876h442v442h-442v-442z m124 318h194v-194h-194v194z m434 682v-442h442v442h-442z m318-318h-194v194h194v-194z m-318-682h442v442h-442v-442z m124 318h194v-194h-194v194z" horiz-adv-x="1000" />
<glyph glyph-name="nav-arrow-down" unicode="&#xe80a;" d="m-188 543l501-505 500 505-118 120-382-387-383 387-118-120z" horiz-adv-x="1000" />
<glyph glyph-name="nav-arrow-left" unicode="&#xe80b;" d="m506 850l-506-500 506-500 119 118-387 382 387 382-119 118z" horiz-adv-x="1000" />
<glyph glyph-name="nav-arrow-right" unicode="&#xe80c;" d="m188 732l386-382-386-382 119-118 506 500-506 500-119-118z" horiz-adv-x="1000" />
<glyph glyph-name="nav-arrow-up" unicode="&#xe80d;" d="m-70 38l383 386 382-386 118 119-500 506-501-506 118-119z" horiz-adv-x="1000" />
<glyph glyph-name="normal-view" unicode="&#xe80e;" d="m897 446v-493h-793v794h492l-81 82-22 21h-493v-1000h1000v493l-21 22-82 81z m-570-269v465l160-160 363 362 144-144-362-363 160-160h-465z" horiz-adv-x="1000" />
<glyph glyph-name="quick-view" unicode="&#xe80f;" d="m1000 350c0-276-224-500-500-500s-500 224-500 500c0 276 224 500 500 500 276 0 500-224 500-500m-489 240c-4 1-7 1-11 1-21 0-41-3-60-7-112-27-206-118-258-179-28-32-43-55-43-55s9-13 25-33c52-66 183-208 336-208 200 0 361 241 361 241s-156 232-350 240z m-11-180c-33 0-60-27-60-60 0-33 27-60 60-60 33 0 60 27 60 60 0 33-27 60-60 60" horiz-adv-x="1000" />
<glyph glyph-name="share" unicode="&#xe810;" d="m751 380c-8-25-27-37-44-37-23 0-42 12-48 37l-40 120-126-82c-56-35-92-98-92-172v-396h-235v396c0 153 82 290 206 369l117 76-98 73c-24 17-28 38-22 59 7 17 26 27 57 27h501l-176-470z" horiz-adv-x="1100" />
<glyph glyph-name="single-page" unicode="&#xe811;" d="m167 850v-1000h1000v1000h-1000z m876-876h-752v752h752v-752z" horiz-adv-x="1333" />
<glyph glyph-name="small-close" unicode="&#xe812;" d="m854 704c195-196 195-512 0-708-196-195-512-195-708 0-195 196-195 512 0 708 196 195 512 195 708 0m-111-514l-160 160 160 160c23 23 23 60 0 83-23 23-60 23-83 0l-160-160-160 160c-23 23-60 23-83 0-23-23-23-60 0-83l160-160-160-160c-23-23-23-60 0-83 12-11 27-17 42-17s30 6 41 17l160 160 160-160c11-11 26-17 41-17s30 6 42 17c23 23 23 60 0 83z" horiz-adv-x="1000" />
<glyph glyph-name="trash" unicode="&#xe813;" d="m856 701l-39 77h-135c-5 40-40 72-82 72h-107c-20 0-38-7-52-19h-1v-1c-15-13-26-31-29-52h-135l-39-77-77-39v-77h387 386v77l-77 39z m-309 77h-96c5 19 21 33 42 33h107c21 0 37-14 42-33h-95z m-232-928h464l77 696h-619l78-696z m313 100l57 514c2 22 22 37 42 34 22-2 37-21 34-42l-57-515c-2-20-19-34-38-34-2 0-3 0-4 0-22 2-37 21-34 43z m-120 510c0 21 18 39 39 39 21 0 39-18 39-39v-515c0-21-18-38-39-38-21 0-39 17-39 38v515z m-142 38c21 3 40-12 42-34l58-514c2-22-13-41-34-43-2 0-3 0-5 0-19 0-36 14-38 34l-57 515c-2 21 13 40 34 42z" horiz-adv-x="1100" />
<glyph glyph-name="dot-circled" unicode="&#xe814;" d="m571 350q0-59-41-101t-101-42-101 42-42 101 42 101 101 42 101-42 41-101z m-142 304q-83 0-153-41t-110-111-41-152 41-152 110-111 153-41 152 41 110 111 41 152-41 152-110 111-152 41z m428-304q0-117-57-215t-156-156-215-58-216 58-155 156-58 215 58 215 155 156 216 58 215-58 156-156 57-215z" horiz-adv-x="857.1" />
<glyph glyph-name="circle" unicode="&#xe815;" d="m857 350q0-117-57-215t-156-156-215-58-216 58-155 156-58 215 58 215 155 156 216 58 215-58 156-156 57-215z" horiz-adv-x="857.1" />
<glyph glyph-name="email" unicode="&#xe816;" d="m0 62l0 576q0 1 3 19l339-290-338-325q-4 14-4 20z m45 635q7 3 17 3l913 0q9 0 18-3l-340-291-45-36-89-73-89 73-45 36z m1-694l341 327 132-107 132 107 341-327q-8-3-17-3l-913 0q-8 0-16 3z m650 364l338 290q3-9 3-19l0-576q0-9-3-20z" horiz-adv-x="1037" />
<glyph glyph-name="ok" unicode="&#xe817;" d="m0 339q0-35 24-60l246-239q24-25 60-25 36 0 60 25l505 495q25 24 25 59t-25 58q-25 25-60 25t-60-25l-445-435-185 181q-25 24-60 24t-61-24q-24-24-24-59z" horiz-adv-x="920.4" />
<glyph glyph-name="menu-arrow-down" unicode="&#xe818;" d="m1000 600l-500-500-500 500h1000z" horiz-adv-x="1000" />
</font>
</defs>
</svg>
