<?xml version="1.0" encoding="utf-8"?>
<!-- Generator: Adobe Illustrator 14.0.0, SVG Export Plug-In . SVG Version: 6.00 Build 43363)  -->
<!DOCTYPE svg PUBLIC "-//W3C//DTD SVG 1.1//EN" "http://www.w3.org/Graphics/SVG/1.1/DTD/svg11.dtd">
<svg version="1.1" id="Layer_1" xmlns="http://www.w3.org/2000/svg" xmlns:xlink="http://www.w3.org/1999/xlink" x="0px" y="0px"
	 width="378px" height="378px" viewBox="0 0 378 378" enable-background="new 0 0 378 378" xml:space="preserve">
<g>
	<g>
		<polygon fill="#C2C2C2" points="362.249,216 378,243 378,189 		"/>
		<polygon fill="#C2C2C2" points="47.25,216 31.5,189 0,189 0,243 31.5,243 		"/>
	</g>
	<g>
		<polygon fill="#C2C2C2" points="94.5,27 78.75,0 141.75,0 126,27 		"/>
		<polygon fill="#C2C2C2" points="78.75,378 94.5,351.001 126,351.001 141.75,378 		"/>
	</g>
	<g>
		<polygon fill="#A5A5A5" points="362.249,162 378,189 378,135 		"/>
		<polygon fill="#A5A5A5" points="47.25,162 31.5,135 0,135 0,189 31.5,189 		"/>
	</g>
	<g>
		<polygon fill="#474747" points="362.249,108 378,135 378,81 		"/>
		<polygon fill="#474747" points="47.25,108 31.5,81 0,81 0,135 31.5,135 		"/>
	</g>
	<g>
		<polygon fill="#DFDFDF" points="362.249,324.001 378,351.001 378,297.001 		"/>
		<polygon fill="#DFDFDF" points="47.25,324.001 31.5,297.001 0,297.001 0,351.001 31.5,351.001 		"/>
	</g>
	<g>
		<polygon fill="#DFDFDF" points="189,27 173.25,0 236.25,0 220.499,27 		"/>
		<polygon fill="#DFDFDF" points="173.25,378 189,351.001 220.499,351.001 236.25,378 		"/>
	</g>
	<g>
		<polygon fill="#959595" points="362.249,54 378,81 378,27 		"/>
		<polygon fill="#959595" points="47.25,54 31.5,27 0,27 0,81 31.5,81 		"/>
	</g>
	<g>
		<polygon fill="#787878" points="362.249,269.999 378,297.001 378,243 		"/>
		<polygon fill="#787878" points="47.25,269.999 31.5,243 0,243 0,297.001 31.5,297.001 		"/>
	</g>
	<g>
		<polygon fill="#787878" points="283.5,27 267.75,0 330.75,0 315.001,27 		"/>
		<polygon fill="#787878" points="267.75,378 283.5,351.001 315.001,351.001 330.75,378 		"/>
	</g>
	<g>
		<polygon fill="#7C7C7C" points="47.25,0 0,0 0,27 31.5,27 		"/>
		<polygon fill="#7C7C7C" points="362.249,0 378,27 378,0 		"/>
		<polygon fill="#7C7C7C" points="362.249,378 378,378 378,351.001 		"/>
		<polygon fill="#7C7C7C" points="0,351.001 0,378 47.25,378 31.5,351.001 		"/>
	</g>
</g>
<g>
	<polygon fill="#FFFFFF" points="189,135 173.25,108 189,81 220.499,81 236.25,108 220.499,135 	"/>
</g>
<g>
	<polygon fill="#808080" points="47.25,216 31.5,189 47.25,162 78.75,162 94.5,189 78.75,216 	"/>
</g>
<g>
	<polygon fill="#FFFFFF" points="141.75,216 126,189 141.75,162 173.25,162 189,189 173.25,216 	"/>
</g>
<g>
	<polygon fill="#FFFFFF" points="141.75,324.001 126,297.001 141.75,269.999 173.25,269.999 189,297.001 173.25,324.001 	"/>
</g>
<g>
	<polygon fill="#FFFFFF" points="283.5,189 267.75,162 283.5,135 315.001,135 330.75,162 315.001,189 	"/>
</g>
<g>
	<polygon fill="#E0E0E0" points="330.75,216 315.001,189 330.75,162 362.249,162 378,189 362.249,216 	"/>
</g>
<g>
	<polygon fill="#C2C2C2" points="141.75,269.999 126,243 141.75,216 173.25,216 189,243 173.25,269.999 	"/>
</g>
<g>
	<polygon fill="#C2C2C2" points="283.5,81 267.75,54 283.5,27 315.001,27 330.75,54 315.001,81 	"/>
</g>
<g>
	<polygon fill="#C2C2C2" points="330.75,162 315.001,135 330.75,108 362.249,108 378,135 362.249,162 	"/>
</g>
<g>
	<polygon fill="#A5A5A5" points="47.25,108 31.5,81 47.25,54 78.75,54 94.5,81 78.75,108 	"/>
</g>
<g>
	<polygon fill="#A5A5A5" points="94.5,81 78.75,54 94.5,27 126,27 141.75,54 126,81 	"/>
</g>
<g>
	<polygon fill="#A5A5A5" points="141.75,162 126,135 141.75,108 173.25,108 189,135 173.25,162 	"/>
</g>
<g>
	<polygon fill="#A5A5A5" points="236.25,108 220.499,81 236.25,54 267.75,54 283.5,81 267.75,108 	"/>
</g>
<g>
	<polygon fill="#A5A5A5" points="47.25,269.999 31.5,243 47.25,216 78.75,216 94.5,243 78.75,269.999 	"/>
</g>
<g>
	<polygon fill="#A5A5A5" points="94.5,297.001 78.75,269.999 94.5,243 126,243 141.75,269.999 126,297.001 	"/>
</g>
<g>
	<polygon fill="#A5A5A5" points="189,243 173.25,216 189,189 220.499,189 236.25,216 220.499,243 	"/>
</g>
<g>
	<polygon fill="#A5A5A5" points="330.75,54 315.001,27 330.75,0 362.249,0 378,27 362.249,54 	"/>
</g>
<g>
	<polygon fill="#A5A5A5" points="283.5,297.001 267.75,269.999 283.5,243 315.001,243 330.75,269.999 315.001,297.001 	"/>
</g>
<g>
	<polygon fill="#A5A5A5" points="47.25,378 31.5,351.001 47.25,324.001 78.75,324.001 94.5,351.001 78.75,378 	"/>
</g>
<g>
	<polygon fill="#A5A5A5" points="189,351.001 173.25,324.001 189,297.001 220.499,297.001 236.25,324.001 220.499,351.001 	"/>
</g>
<g>
	<polygon fill="#474747" points="47.25,54 31.5,27 47.25,0 78.75,0 94.5,27 78.75,54 	"/>
</g>
<g>
	<polygon fill="#474747" points="236.25,162 220.499,135 236.25,108 267.75,108 283.5,135 267.75,162 	"/>
</g>
<g>
	<polygon fill="#474747" points="94.5,243 78.75,216 94.5,189 126,189 141.75,216 126,243 	"/>
</g>
<g>
	<polygon fill="#474747" points="283.5,243 267.75,216 283.5,189 315.001,189 330.75,216 315.001,243 	"/>
</g>
<g>
	<polygon fill="#474747" points="330.75,324.001 315.001,297.001 330.75,269.999 362.249,269.999 378,297.001 362.249,324.001 	"/>
</g>
<g>
	<polygon fill="#474747" points="236.25,378 220.499,351.001 236.25,324.001 267.75,324.001 283.5,351.001 267.75,378 	"/>
</g>
<g>
	<polygon fill="#DFDFDF" points="47.25,162 31.5,135 47.25,108 78.75,108 94.5,135 78.75,162 	"/>
</g>
<g>
	<polygon fill="#DFDFDF" points="141.75,54 126,27 141.75,0 173.25,0 189,27 173.25,54 	"/>
</g>
<g>
	<polygon fill="#DFDFDF" points="47.25,324.001 31.5,297.001 47.25,269.999 78.75,269.999 94.5,297.001 78.75,324.001 	"/>
</g>
<g>
	<polygon fill="#DFDFDF" points="189,189 173.25,162 189,135 220.499,135 236.25,162 220.499,189 	"/>
</g>
<g>
	<polygon fill="#DFDFDF" points="236.25,324.001 220.499,297.001 236.25,269.999 267.75,269.999 283.5,297.001 267.75,324.001 	"/>
</g>
<g>
	<polygon fill="#DFDFDF" points="141.75,378 126,351.001 141.75,324.001 173.25,324.001 189,351.001 173.25,378 	"/>
</g>
<g>
	<polygon fill="#DFDFDF" points="283.5,351.001 267.75,324.001 283.5,297.001 315.001,297.001 330.75,324.001 315.001,351.001 	"/>
</g>
<g>
	<polygon fill="#959595" points="236.25,54 220.499,27 236.25,0 267.75,0 283.5,27 267.75,54 	"/>
</g>
<g>
	<polygon fill="#959595" points="189,81 173.25,54 189,27 220.499,27 236.25,54 220.499,81 	"/>
</g>
<g>
	<polygon fill="#959595" points="236.25,269.999 220.499,243 236.25,216 267.75,216 283.5,243 267.75,269.999 	"/>
</g>
<g>
	<polygon fill="#959595" points="330.75,108 315.001,81 330.75,54 362.249,54 378,81 362.249,108 	"/>
</g>
<g>
	<polygon fill="#959595" points="330.75,378 315.001,351.001 330.75,324.001 362.249,324.001 378,351.001 362.249,378 	"/>
</g>
<g>
	<polygon fill="#787878" points="141.75,108 126,81 141.75,54 173.25,54 189,81 173.25,108 	"/>
</g>
<g>
	<polygon fill="#959595" points="94.5,189 78.75,162 94.5,135 126,135 141.75,162 126,189 	"/>
</g>
<g>
	<polygon fill="#787878" points="236.25,216 220.499,189 236.25,162 267.75,162 283.5,189 267.75,216 	"/>
</g>
<g>
	<polygon fill="#787878" points="189,297.001 173.25,269.999 189,243 220.499,243 236.25,269.999 220.499,297.001 	"/>
</g>
<g>
	<polygon fill="#787878" points="283.5,135 267.75,108 283.5,81 315.001,81 330.75,108 315.001,135 	"/>
</g>
<g>
	<polygon fill="#787878" points="330.75,269.999 315.001,243 330.75,216 362.249,216 378,243 362.249,269.999 	"/>
</g>
<g>
	<polygon fill="#787878" points="94.5,351.001 78.75,324.001 94.5,297.001 126,297.001 141.75,324.001 126,351.001 	"/>
</g>
<g>
	<polygon fill="#474747" points="94.5,135 78.75,108 94.5,81 126,81 141.75,108 126,135 	"/>
</g>
<g>
	<line fill="none" x1="31.5" y1="27" x2="0" y2="27"/>
	<line fill="none" x1="31.5" y1="81" x2="0" y2="81"/>
	<line fill="none" x1="31.5" y1="135" x2="0" y2="135"/>
	<line fill="none" x1="31.5" y1="189" x2="0" y2="189"/>
	<line fill="none" x1="31.5" y1="243" x2="0" y2="243"/>
	<line fill="none" x1="31.5" y1="297" x2="0" y2="297"/>
	<line fill="none" x1="31.5" y1="351" x2="0" y2="351"/>
</g>
<rect x="-99.5" y="-54.5" opacity="0.86" fill="#E0E0E0" width="553" height="483"/>
</svg>
