<?xml version="1.0" encoding="utf-8"?>
<!-- Generator: Adobe Illustrator 18.1.1, SVG Export Plug-In . SVG Version: 6.00 Build 0)  -->
<svg version="1.1" id="Слой_1" xmlns="http://www.w3.org/2000/svg" xmlns:xlink="http://www.w3.org/1999/xlink" x="0px" y="0px"
	 width="181.4px" height="60px" viewBox="0 0 181.4 60" enable-background="new 0 0 181.4 60" xml:space="preserve">
<path fill="#FFFFFF" d="M178.8,46.3c-1.5,0-2.6-1.2-2.6-2.6c0-1.4,1.2-2.6,2.6-2.6c1.5,0,2.6,1.2,2.6,2.6
	C181.4,45.1,180.2,46.3,178.8,46.3 M178.8,41.2c-1.4,0-2.4,1.1-2.4,2.4c0,1.3,1,2.4,2.4,2.4c1.4,0,2.4-1.1,2.4-2.4
	C181.2,42.3,180.1,41.2,178.8,41.2 M179.3,43.8l0.8,1.1h-0.5l-0.8-1h-0.7v1h-0.4v-2.7h1.2c0.6,0,1,0.3,1,0.8
	C180,43.5,179.7,43.7,179.3,43.8 M178.9,42.6h-0.8v1h0.8c0.4,0,0.6-0.2,0.6-0.5C179.6,42.7,179.3,42.6,178.9,42.6"/>
<path fill="#FFFFFF" d="M80.2,23.6c-0.9-1.2-2-2.2-3.4-2.9c-1.4-0.7-3-1.1-4.8-1.1c-1.7,0-3.2,0.3-4.5,0.9c-1.4,0.6-2.5,1.4-3.5,2.4
	c-1,1-1.7,2.2-2.3,3.6c-0.5,1.4-0.8,2.9-0.8,4.5c0,1.7,0.3,3.2,0.8,4.6c0.5,1.4,1.3,2.6,2.2,3.6c1,1,2.1,1.8,3.5,2.3
	c1.4,0.5,2.9,0.8,4.6,0.8c2.5,0,4.6-0.6,6.3-1.7c1.7-1.1,3-3,3.9-5.6h-5.2c-0.2,0.7-0.7,1.3-1.6,1.9c-0.9,0.6-1.9,0.9-3.1,0.9
	c-1.7,0-3-0.4-3.9-1.3c-0.9-0.9-1.4-2.3-1.5-4.2h15.6c0.1-1.7,0-3.3-0.4-4.8C81.7,26.2,81,24.8,80.2,23.6 M66.8,28.7
	c0-0.4,0.1-0.9,0.3-1.4c0.2-0.5,0.4-1,0.8-1.5c0.4-0.5,0.9-0.9,1.5-1.2c0.6-0.3,1.4-0.5,2.4-0.5c1.5,0,2.5,0.4,3.3,1.2
	c0.7,0.8,1.2,1.9,1.5,3.4C76.5,28.7,66.8,28.7,66.8,28.7z"/>
<path fill="#FFFFFF" d="M99.5,22.9L99.5,22.9c-0.8-1.1-1.7-1.9-2.8-2.4c-1.2-0.5-2.4-0.8-3.7-0.8c-1.6,0-3,0.3-4.2,0.9
	c-1.2,0.6-2.2,1.5-3,2.5c-0.8,1-1.4,2.2-1.8,3.6c-0.4,1.4-0.6,2.8-0.6,4.2c0,1.5,0.2,3,0.6,4.4c0.4,1.4,1,2.6,1.8,3.7
	c0.8,1.1,1.8,1.9,3,2.6c1.2,0.6,2.7,0.9,4.3,0.9c1.4,0,2.7-0.3,3.8-0.8c1.1-0.5,2-1.4,2.7-2.5h0.1v2.8h5.7V12h-6L99.5,22.9
	L99.5,22.9z M99.5,33.6c-0.2,0.8-0.4,1.6-0.8,2.2c-0.4,0.7-0.9,1.2-1.6,1.6c-0.7,0.4-1.5,0.6-2.5,0.6c-0.9,0-1.7-0.2-2.4-0.6
	c-0.7-0.4-1.2-0.9-1.6-1.6c-0.4-0.7-0.7-1.4-0.9-2.2c-0.2-0.8-0.3-1.7-0.3-2.5c0-0.9,0.1-1.8,0.3-2.6c0.2-0.8,0.5-1.6,0.9-2.2
	c0.4-0.6,0.9-1.2,1.6-1.6c0.7-0.4,1.5-0.6,2.5-0.6c1,0,1.8,0.2,2.4,0.6c0.6,0.4,1.2,0.9,1.6,1.5c0.4,0.6,0.7,1.4,0.9,2.2
	c0.2,0.8,0.3,1.7,0.3,2.6C99.7,31.9,99.6,32.8,99.5,33.6"/>
<path fill="#FFFFFF" d="M126.5,23.6c-0.9-1.2-2-2.2-3.4-2.9c-1.4-0.7-3-1.1-4.8-1.1c-1.7,0-3.2,0.3-4.5,0.9
	c-1.4,0.6-2.5,1.4-3.5,2.4c-1,1-1.7,2.2-2.3,3.6c-0.5,1.4-0.8,2.9-0.8,4.5c0,1.7,0.3,3.2,0.8,4.6c0.5,1.4,1.3,2.6,2.2,3.6
	c1,1,2.1,1.8,3.5,2.3c1.4,0.5,2.9,0.8,4.6,0.8c2.5,0,4.6-0.6,6.3-1.7c1.7-1.1,3-3,3.9-5.6h-5.2c-0.2,0.7-0.7,1.3-1.6,1.9
	c-0.9,0.6-1.9,0.9-3.1,0.9c-1.7,0-3-0.4-3.9-1.3c-0.9-0.9-1.4-2.3-1.5-4.2h15.6c0.1-1.7,0-3.3-0.4-4.8
	C128,26.2,127.4,24.8,126.5,23.6 M113.2,28.7c0-0.4,0.1-0.9,0.3-1.4c0.2-0.5,0.4-1,0.8-1.5c0.4-0.5,0.9-0.9,1.5-1.2
	c0.6-0.3,1.4-0.5,2.4-0.5c1.5,0,2.5,0.4,3.3,1.2c0.7,0.8,1.2,1.9,1.5,3.4C122.9,28.7,113.2,28.7,113.2,28.7z"/>
<path fill="#FFFFFF" d="M150.4,23.2c-0.8-1.1-1.8-1.9-3.1-2.6c-1.2-0.6-2.7-1-4.4-1c-1.3,0-2.6,0.3-3.7,0.8c-1.1,0.5-2,1.4-2.8,2.6
	h-0.1v-2.8h-5.7v29.3h6V39.2h0.1c0.7,1.1,1.7,1.9,2.8,2.4c1.1,0.5,2.4,0.8,3.7,0.8c1.6,0,3-0.3,4.2-0.9c1.2-0.6,2.2-1.4,3-2.5
	c0.8-1,1.4-2.2,1.8-3.6c0.4-1.3,0.6-2.7,0.6-4.2c0-1.5-0.2-3-0.6-4.4C151.8,25.5,151.2,24.2,150.4,23.2 M146.5,33.7
	c-0.2,0.8-0.5,1.6-0.9,2.2c-0.4,0.6-0.9,1.1-1.6,1.5c-0.7,0.4-1.5,0.6-2.5,0.6c-1,0-1.8-0.2-2.4-0.6c-0.7-0.4-1.2-0.9-1.6-1.5
	c-0.4-0.6-0.7-1.4-0.9-2.2c-0.2-0.8-0.3-1.7-0.3-2.6c0-0.9,0.1-1.8,0.3-2.6s0.5-1.6,0.9-2.2c0.4-0.6,0.9-1.2,1.6-1.6
	c0.7-0.4,1.5-0.6,2.5-0.6c1,0,1.8,0.2,2.4,0.6c0.7,0.4,1.2,0.9,1.6,1.6c0.4,0.7,0.7,1.4,0.9,2.2c0.2,0.8,0.3,1.7,0.3,2.6
	C146.8,32,146.7,32.9,146.5,33.7"/>
<path fill="#FFFFFF" d="M175.6,26.4c-0.5-1.4-1.3-2.6-2.3-3.6c-1-1-2.2-1.8-3.5-2.3c-1.4-0.5-2.9-0.8-4.6-0.8s-3.2,0.3-4.6,0.8
	c-1.4,0.5-2.5,1.3-3.5,2.3c-1,1-1.7,2.2-2.3,3.6c-0.5,1.4-0.8,3-0.8,4.7c0,1.7,0.3,3.3,0.8,4.7c0.5,1.4,1.3,2.6,2.3,3.6
	c1,1,2.2,1.8,3.5,2.3c1.4,0.5,2.9,0.8,4.6,0.8s3.3-0.3,4.6-0.8c1.4-0.5,2.6-1.3,3.5-2.3c1-1,1.7-2.2,2.3-3.6c0.5-1.4,0.8-3,0.8-4.7
	C176.4,29.4,176.1,27.8,175.6,26.4 M170.2,33.6c-0.2,0.8-0.5,1.6-0.9,2.2c-0.4,0.7-1,1.2-1.6,1.6c-0.7,0.4-1.5,0.6-2.5,0.6
	c-1,0-1.8-0.2-2.5-0.6c-0.7-0.4-1.2-0.9-1.6-1.6c-0.4-0.7-0.7-1.4-0.9-2.2c-0.2-0.8-0.3-1.7-0.3-2.5c0-0.9,0.1-1.7,0.3-2.6
	c0.2-0.8,0.5-1.6,0.9-2.2c0.4-0.6,0.9-1.2,1.6-1.6c0.7-0.4,1.5-0.6,2.5-0.6c1,0,1.9,0.2,2.5,0.6c0.7,0.4,1.2,0.9,1.6,1.6
	c0.4,0.6,0.7,1.4,0.9,2.2c0.2,0.8,0.3,1.7,0.3,2.6C170.5,32,170.4,32.8,170.2,33.6"/>
<path fill="#8CBF5C" d="M28.2,58.6c-0.2,0-0.4,0-0.6-0.1c-3.1-1.4-6-3.1-8.6-5l-1.9,2.2c-0.3,0.3-0.6,0.5-1,0.5c-0.1,0-0.2,0-0.3,0
	c-0.4-0.1-11-2.6-13.9-12.4c-1.8-6.2,0.8-9.8,3-11.6c-0.5-2.6-0.4-4.3-0.4-4.4c0-4,0.8-7.8,2.4-11.4C5.8,11.3,6.3,6.5,8.5,2.1
	C8.6,1.9,8.8,1.7,9,1.6c0.2-0.1,0.5-0.2,0.7-0.2c0,0,0.1,0,0.1,0C13,1.6,16,2.4,18.7,4c3-1.4,6.2-2.2,9.4-2.2c3.3,0,6.5,0.7,9.5,2.2
	c2.8-1.6,5.8-2.5,8.9-2.6c0,0,0.1,0,0.1,0c0.2,0,0.4,0.1,0.6,0.2c0.2,0.1,0.4,0.3,0.6,0.6c2.2,4.4,2.7,9.2,1.6,14.3
	c1.6,3.6,2.4,7.4,2.4,11.4c0,0,0.1,1.7-0.4,4.3c2.2,1.8,4.8,5.4,3,11.6C51.5,53.6,41,56.1,40.5,56.2c-0.1,0-0.2,0-0.3,0
	c-0.4,0-0.8-0.2-1-0.5l-1.9-2.2c-2.6,1.9-5.4,3.5-8.6,5C28.5,58.6,28.4,58.6,28.2,58.6"/>
<path fill="#58595B" d="M46.6,2.7L46.6,2.7c2.5,5.1,2.3,10,1.4,13.9c1.6,3.4,2.5,7.2,2.5,11.3c0,0,0.1,1.9-0.6,4.9
	c2.1,1.5,4.9,4.7,3.2,10.7c-2.7,9.1-12.9,11.4-12.9,11.4l-2.7-3.2c-2.6,2-5.7,3.9-9.4,5.6v0h0h0v0c-3.7-1.7-6.8-3.6-9.4-5.6
	l-2.7,3.2c0,0-10.2-2.3-12.9-11.4c-1.8-6,1-9.2,3.2-10.7c-0.6-3-0.6-4.9-0.6-4.9c0-4.1,0.9-7.9,2.5-11.3C7.4,12.7,7.2,7.8,9.7,2.7
	l0,0c3.6,0.2,6.5,1.4,8.9,2.8c2.9-1.5,6.1-2.3,9.5-2.3h0h0c3.4,0,6.6,0.8,9.5,2.3C40.1,4.1,43.1,2.9,46.6,2.7 M9.7,0
	c-0.5,0-1,0.1-1.4,0.4C7.9,0.7,7.5,1,7.3,1.5C5.1,6,4.4,11.1,5.5,16.3c-1.6,3.6-2.3,7.5-2.4,11.5c0,0.3,0,1.7,0.3,3.8
	c-3.2,3.1-4.3,7.5-2.8,12.5C3.7,54.7,15,57.4,15.5,57.5c0.2,0,0.4,0.1,0.6,0.1c0.8,0,1.5-0.3,2.1-1l1.1-1.2c2.4,1.6,4.9,3.1,7.7,4.4
	c0.4,0.2,0.8,0.3,1.2,0.3c0.4,0,0.8-0.1,1.2-0.3c2.8-1.3,5.4-2.7,7.7-4.4l1.1,1.2c0.5,0.6,1.3,1,2.1,1c0.2,0,0.4,0,0.6-0.1
	c0.5-0.1,11.8-2.8,14.9-13.3c1.5-5,0.4-9.5-2.8-12.5c0.3-2.1,0.3-3.5,0.3-3.8c0-4-0.8-7.9-2.3-11.5c1.1-5.2,0.4-10.3-1.8-14.8
	c-0.2-0.5-0.6-0.9-1.1-1.2C47.5,0.1,47.1,0,46.6,0c-0.1,0-0.1,0-0.2,0c-3.1,0.2-6.1,1-8.9,2.5c-3-1.3-6.1-2-9.4-2
	c-3.3,0-6.4,0.7-9.4,2C16,1,13,0.2,9.9,0C9.8,0,9.8,0,9.7,0"/>
<path fill="#FFFFFF" d="M16.4,35.2c-6.7,0-12.1-5.4-12.1-12.1c0-1.3,0.2-2.5,0.6-3.7c1.6-5,6.2-8.4,11.5-8.4c5.3,0,9.9,3.4,11.5,8.4
	c0.4,1.2,0.6,2.4,0.6,3.6C28.4,29.8,23,35.2,16.4,35.2"/>
<path fill="#58595B" d="M16.4,12.4c4.8,0,8.8,3.1,10.2,7.5c0.3,1,0.5,2.1,0.5,3.2c0,5.9-4.8,10.7-10.7,10.7
	c-5.9,0-10.7-4.8-10.7-10.7c0-1.1,0.2-2.2,0.5-3.2C7.5,15.6,11.6,12.4,16.4,12.4 M16.4,9.7c-5.9,0-11,3.8-12.8,9.4
	c-0.4,1.3-0.6,2.7-0.6,4.1c0,7.4,6,13.4,13.4,13.4s13.4-6,13.4-13.4c0-1.4-0.2-2.8-0.6-4.1C27.4,13.5,22.2,9.7,16.4,9.7"/>
<path fill="#FFFFFF" d="M40,35.2c-6.7,0-12.1-5.4-12.1-12.1c0-1.3,0.2-2.5,0.6-3.7c1.6-5,6.2-8.4,11.5-8.4c5.3,0,9.9,3.4,11.5,8.4
	c0.4,1.2,0.6,2.4,0.6,3.6C52,29.8,46.6,35.2,40,35.2"/>
<path fill="#58595B" d="M40,12.4c4.8,0,8.8,3.1,10.2,7.5c0.3,1,0.5,2.1,0.5,3.2c0,5.9-4.8,10.7-10.7,10.7c-5.9,0-10.7-4.8-10.7-10.7
	c0-1.1,0.2-2.2,0.5-3.2C31.1,15.6,35.2,12.4,40,12.4 M40,9.7c-5.9,0-11,3.8-12.8,9.4c-0.4,1.3-0.6,2.7-0.6,4.1
	c0,7.4,6,13.4,13.4,13.4c7.4,0,13.4-6,13.4-13.4c0-1.4-0.2-2.7-0.6-4C51,13.5,45.8,9.7,40,9.7"/>
<path fill="#FFFFFF" d="M27.1,23.1c0,5.9-4.8,10.7-10.7,10.7c-5.9,0-10.7-4.8-10.7-10.7c0-1.1,0.2-2.2,0.5-3.2
	c1.4-4.3,5.4-7.5,10.2-7.5c4.8,0,8.8,3.1,10.2,7.5C26.9,20.9,27.1,22,27.1,23.1"/>
<path fill="#FFFFFF" d="M50.7,23.1c0,5.9-4.8,10.7-10.7,10.7c-5.9,0-10.7-4.8-10.7-10.7c0-1.1,0.2-2.2,0.5-3.2
	c1.4-4.3,5.4-7.5,10.2-7.5c4.8,0,8.8,3.1,10.2,7.5C50.5,20.9,50.7,22,50.7,23.1"/>
<path fill="#FFFFFF" d="M28.2,41.3c4.1-1.8,3.8-5.2,3.8-5.2c-0.9-1.8-2.9-2.2-3.8-2.3h0c-0.8,0.1-2.9,0.6-3.8,2.3
	C24.4,36.2,24,39.5,28.2,41.3L28.2,41.3z"/>
<path fill="#D1D3D4" d="M28.5,19.5c0.9-1.1,2.1-2.1,3.5-2.9c6.2-3.6,14.2-1.5,17.8,4.8c0.8,1.3,1.3,2.7,1.5,4.1
	c0.3-2.5-0.1-5.1-1.5-7.4c-0.6-1.1-1.4-2-2.3-2.8c-3.7-3.4-9.3-4.2-13.9-1.5C31.2,15,29.5,17.1,28.5,19.5"/>
<path fill="#43A5D9" d="M23.5,24.2c0,4-3.2,7.2-7.2,7.2c-4,0-7.2-3.2-7.2-7.2c0-4,3.2-7.2,7.2-7.2C20.3,17,23.5,20.3,23.5,24.2"/>
<path fill="#43A5D9" d="M47.1,24.2c0,4-3.2,7.2-7.2,7.2c-4,0-7.2-3.2-7.2-7.2c0-4,3.2-7.2,7.2-7.2C43.9,17,47.1,20.3,47.1,24.2"/>
<path fill="#FFFFFF" d="M17.3,22.7c0,1.4-1.1,2.5-2.5,2.5c-1.4,0-2.5-1.1-2.5-2.5c0-1.4,1.1-2.5,2.5-2.5
	C16.2,20.2,17.3,21.3,17.3,22.7"/>
<path fill="#FFFFFF" d="M40.9,22.7c0,1.4-1.1,2.5-2.5,2.5c-1.4,0-2.5-1.1-2.5-2.5c0-1.4,1.1-2.5,2.5-2.5
	C39.8,20.2,40.9,21.3,40.9,22.7"/>
<path fill="#D1D3D4" d="M27.8,19.5c-0.9-1.1-2.1-2.1-3.5-2.9c-6.2-3.6-14.2-1.5-17.8,4.8C5.8,22.6,5.3,24,5,25.4
	c-0.3-2.5,0.1-5.1,1.5-7.4c0.6-1.1,1.4-2,2.3-2.8c3.7-3.4,9.3-4.2,13.9-1.5C25.1,15,26.8,17.1,27.8,19.5"/>
<path fill="#58595B" d="M16.4,12.4c4.8,0,8.8,3.1,10.2,7.5c0.3,1,0.5,2.1,0.5,3.2c0,5.9-4.8,10.7-10.7,10.7
	c-5.9,0-10.7-4.8-10.7-10.7c0-1.1,0.2-2.2,0.5-3.2C7.5,15.6,11.6,12.4,16.4,12.4 M16.4,10.2c-5.6,0-10.6,3.6-12.3,9
	c-0.4,1.2-0.6,2.5-0.6,3.9C3.5,30.2,9.3,36,16.4,36s12.9-5.8,12.9-12.9c0-1.3-0.2-2.7-0.6-3.9C26.9,13.9,22,10.2,16.4,10.2"/>
<path fill="#58595B" d="M40,12.4c4.8,0,8.8,3.1,10.2,7.5c0.3,1,0.5,2.1,0.5,3.2c0,5.9-4.8,10.7-10.7,10.7c-5.9,0-10.7-4.8-10.7-10.7
	c0-1.1,0.2-2.2,0.5-3.2C31.1,15.6,35.2,12.4,40,12.4 M40,10.2c-5.6,0-10.6,3.6-12.3,9c-0.4,1.2-0.6,2.6-0.6,3.9
	C27.1,30.2,32.9,36,40,36c7.1,0,12.9-5.8,12.9-12.9c0-1.3-0.2-2.6-0.6-3.9C50.5,13.9,45.6,10.2,40,10.2"/>
</svg>
