<?xml version="1.0" encoding="utf-8"?>
<!-- Generator: Adobe Illustrator 14.0.0, SVG Export Plug-In . SVG Version: 6.00 Build 43363)  -->
<!DOCTYPE svg PUBLIC "-//W3C//DTD SVG 1.1//EN" "http://www.w3.org/Graphics/SVG/1.1/DTD/svg11.dtd">
<svg version="1.1" id="Слой_1" xmlns="http://www.w3.org/2000/svg" xmlns:xlink="http://www.w3.org/1999/xlink" x="0px" y="0px"
	 width="43px" height="45.8px" viewBox="0 0 43 45.8" enable-background="new 0 0 43 45.8" xml:space="preserve">
<linearGradient id="SVGID_1_" gradientUnits="userSpaceOnUse" x1="227.5488" y1="-271.0693" x2="227.5488" y2="-289.2607" gradientTransform="matrix(1 0 0 -1 -206 -250.2002)">
	<stop  offset="0" style="stop-color:#C8DD99"/>
	<stop  offset="1" style="stop-color:#99C45A"/>
</linearGradient>
<path fill="url(#SVGID_1_)" d="M21.5,44.8c-0.2,0-0.3,0-0.4-0.1c-2.4-1.101-4.6-2.4-6.5-3.801l-1.4,1.7C13,42.8,12.7,43,12.4,43
	c-0.1,0-0.2,0-0.2,0c-0.3-0.1-8.4-2-10.6-9.399c-1.4-4.7,0.6-7.5,2.3-8.899c-0.4-2-0.3-3.301-0.3-3.301c0-3,0.6-6,1.8-8.7
	C4.4,8.6,4.8,5,6.5,1.6c0.1-0.2,0.2-0.3,0.4-0.4C7,1.1,7.2,1,7.4,1c0,0,0,0,0.1,0c2.4,0.1,4.7,0.8,6.8,2c2.3-1,4.7-1.6,7.2-1.6
	s4.9,0.6,7.2,1.7c2.1-1.2,4.399-1.9,6.8-2c0,0,0,0,0.1,0c0.2,0,0.301,0,0.5,0.1c0.2,0.1,0.301,0.3,0.4,0.4c1.7,3.4,2.1,7.1,1.2,10.9
	c1.2,2.7,1.8,5.7,1.8,8.7c0,0,0,1.3-0.3,3.299c1.7,1.4,3.7,4.101,2.3,8.9c-2.2,7.5-10.2,9.4-10.6,9.4c-0.101,0-0.2,0-0.2,0
	c-0.3,0-0.601-0.1-0.8-0.4l-1.4-1.699c-2,1.399-4.2,2.699-6.6,3.799C21.8,44.701,21.6,44.8,21.5,44.8z"/>
<linearGradient id="SVGID_2_" gradientUnits="userSpaceOnUse" x1="227.4688" y1="-288.9473" x2="227.4688" y2="-255.4475" gradientTransform="matrix(1 0 0 -1 -206 -250.2002)">
	<stop  offset="0" style="stop-color:#595651"/>
	<stop  offset="1" style="stop-color:#46433E"/>
</linearGradient>
<path fill="url(#SVGID_2_)" d="M40.4,24.201c0-0.101,0-0.101,0-0.201C40.6,22.5,40.6,21.5,40.6,21.2c0-3.1-0.6-6-1.8-8.8
	c0.101-0.3,0.101-0.5,0.101-0.8c0.6-3.7,0.1-7.3-1.5-10.5c-0.2-0.4-0.5-0.7-0.9-0.9c-0.3-0.2-0.6-0.3-1-0.3h-0.1
	C33,0,30.7,0.7,28.6,1.8c-2.3-1-4.699-1.5-7.2-1.5c-2.5,0-4.9,0.5-7.2,1.5c-2-1-4.3-1.7-6.7-1.8H7.4C7,0,6.7,0.1,6.4,0.3
	C6,0.5,5.7,0.8,5.6,1.1C3.9,4.6,3.4,8.5,4.2,12.4c-1.2,2.8-1.8,5.7-1.8,8.8c0,0.3,0,1.3,0.2,2.9c-2.5,2.3-3.3,5.8-2.1,9.601
	c2.4,8,11,10.1,11.3,10.199c0.2,0,0.3,0,0.5,0c0.6,0,1.2-0.3,1.6-0.699l0.8-1c1.8,1.199,3.8,2.399,5.9,3.299
	c0.3,0.101,0.6,0.201,0.9,0.201s0.6-0.101,0.9-0.201c2.1-1,4.1-2.1,5.899-3.299l0.8,1c0.4,0.5,1,0.699,1.601,0.699
	c0.2,0,0.3,0,0.5,0c0.399-0.1,9-2.1,11.3-10.199C43.6,29.9,42.8,26.5,40.4,24.201z M40.5,33.1c-2,7-9.8,8.7-9.8,8.7l-2-2.4
	c-2,1.5-4.3,3-7.2,4.301C18.7,42.4,16.3,41,14.3,39.4l-2,2.4c0,0-7.8-1.801-9.8-8.7c-1.3-4.601,0.8-7,2.4-8.2
	c-0.1-0.4-0.2-0.8-0.2-1.199c-0.2-1.601-0.2-2.5-0.2-2.5c0-3.1,0.7-6,1.9-8.6c-0.1-0.3-0.1-0.6-0.2-1C5.6,8.9,5.7,5.5,7.4,2.1l0,0
	c2.7,0.2,5,1,6.8,2.2c2.2-1.1,4.7-1.8,7.3-1.8c1.3,0,2.6,0.2,3.8,0.5s2.4,0.8,3.5,1.3c1.9-1.1,4.101-2,6.8-2.2l0,0
	c1.4,2.8,1.7,5.6,1.5,8C37,10.9,36.9,11.7,36.7,12.4c0,0.1,0,0.2-0.101,0.3c1.2,2.6,1.9,5.5,1.9,8.6c0,0,0,0.7-0.1,2
	C38.3,23.8,38.2,24.4,38.1,25C38.4,25.201,38.7,25.5,39,25.8C40.4,27.1,41.6,29.4,40.5,33.1z"/>
<g>
	<g>
		<path fill="#FFFFFF" d="M20.7,17.7c0,4.5-3.7,8.2-8.2,8.2s-8.2-3.7-8.2-8.2c0-0.9,0.1-1.7,0.4-2.5c1-3.3,4.1-5.7,7.8-5.7
			s6.8,2.4,7.8,5.7C20.5,16,20.7,16.8,20.7,17.7z"/>
	</g>
	<g>
		<path fill="#FFFFFF" d="M38.7,17.7c0,4.5-3.7,8.2-8.2,8.2s-8.2-3.7-8.2-8.2c0-0.9,0.101-1.7,0.4-2.5c1-3.3,4.1-5.7,7.8-5.7
			s6.8,2.4,7.8,5.7C38.6,16,38.7,16.8,38.7,17.7z"/>
	</g>
</g>
<g>
	<circle fill="#3EB5F1" cx="12.5" cy="18.5" r="5.5"/>
</g>
<g>
	<circle fill="#3EB5F1" cx="30.5" cy="18.5" r="5.5"/>
</g>
<circle fill="#FFFFFF" cx="11.3" cy="17.3" r="1.9"/>
<circle fill="#FFFFFF" cx="29.3" cy="17.3" r="1.9"/>
<linearGradient id="SVGID_3_" gradientUnits="userSpaceOnUse" x1="227.8994" y1="-273.7905" x2="227.8994" y2="-287.295" gradientTransform="matrix(1 0 0 -1 -206 -250.2002)">
	<stop  offset="0" style="stop-color:#595651"/>
	<stop  offset="1" style="stop-color:#46433E"/>
</linearGradient>
<path opacity="0.2" fill="url(#SVGID_3_)" enable-background="new    " d="M40.6,21.2c0-3.1-0.6-6-1.8-8.8
	c0.101-0.3,0.101-0.5,0.101-0.8C38.3,11,37.7,10.5,37,10.1c-1.6-1-3.5-1.6-5.5-1.6c-3.8,0-7.2,2.1-9,5.3c-1.8-3.3-5.2-5.3-9-5.3
	c-2.9,0-5.5,1.2-7.4,3.2c-1.1,1.1-1.9,2.5-2.4,4c-0.3,1-0.5,2-0.5,3.1c0,1.8,0.5,3.6,1.3,5.1c1.8,3.1,5.1,5.2,8.9,5.2
	c3.9,0,7.3-2.2,9-5.399c1.699,3.199,5.1,5.399,9,5.399c1.6,0,3.1-0.399,4.399-1c-4.2,5.3-10.6,8.7-17.9,8.7c-2.9,0-5.7-0.5-8.2-1.5
	c2.5,3.1,6.2,6.1,11.6,8.6C31.9,39,36,32,37.6,27.1c0.5-0.399,1-0.8,1.5-1.3s1-1.1,1.4-1.801C40.6,22.5,40.6,21.5,40.6,21.2z
	 M21.8,18.8c0,0.2,0,0.4,0,0.6c0,0.1,0,0.1,0,0.2c0,0.2-0.1,0.4-0.1,0.6c0,0.1,0,0.1,0,0.2s-0.1,0.3-0.1,0.4c0,0.1-0.1,0.2-0.1,0.3
	s-0.1,0.3-0.2,0.4c0,0.1-0.1,0.2-0.1,0.3c-0.1,0.2-0.2,0.4-0.3,0.7c0,0.1-0.1,0.1-0.1,0.2c-0.1,0.2-0.2,0.3-0.3,0.5
	c0,0.1-0.1,0.1-0.2,0.2c-0.1,0.1-0.2,0.301-0.3,0.4S19.9,23.9,19.8,24c-0.1,0.101-0.2,0.201-0.3,0.4c-0.1,0.1-0.1,0.1-0.2,0.2
	C19.2,24.701,19,24.8,18.9,25c0,0-0.1,0.101-0.2,0.101c-0.4,0.3-0.8,0.601-1.2,0.8c0,0-0.1,0-0.1,0.1C17.2,26.1,17,26.201,16.8,26.3
	c-0.1,0-0.1,0.1-0.2,0.1c-0.2,0.1-0.3,0.1-0.5,0.2c-0.1,0-0.1,0-0.2,0.101c-0.2,0.1-0.4,0.1-0.5,0.1s-0.1,0-0.2,0
	c-0.2,0-0.4,0.1-0.6,0.1h-0.1c-0.3,0-0.5,0-0.8,0c-2.5,0-4.8-1.199-6.3-3c-1.2-1.4-1.9-3.2-1.9-5.2c0-0.6,0.1-1.2,0.2-1.7
	c0-0.1,0-0.2,0.1-0.3c0-0.2,0.1-0.3,0.1-0.5c1-3.3,4.1-5.7,7.8-5.7c3.7,0,6.8,2.4,7.8,5.7c0.1,0.2,0.1,0.3,0.1,0.5
	c0,0.1,0,0.2,0.1,0.3c0,0.1,0,0.1,0,0.2c0,0.1,0,0.2,0,0.3s0,0.2,0,0.3c0,0.1,0,0.2,0,0.3s0,0.2,0,0.4v0.1
	C21.8,18.7,21.7,18.7,21.8,18.8C21.7,18.8,21.8,18.8,21.8,18.8z M38.9,22.5C38.8,22.8,38.6,23,38.4,23.3c-1.5,2.2-4,3.7-6.801,3.7
	c-0.3,0-0.5,0-0.8,0c-0.1,0-0.1,0-0.2,0C30.4,27,30.2,26.9,30,26.9h-0.2c-0.2,0-0.399-0.1-0.5-0.1c-0.1,0-0.2,0-0.2-0.1
	C28.9,26.6,28.8,26.6,28.6,26.5c-0.1,0-0.1-0.1-0.199-0.1c-0.2-0.1-0.301-0.199-0.5-0.199c0,0-0.101,0-0.2-0.101
	C27.5,26,27.3,25.9,27.1,25.701c0,0-0.1,0-0.1-0.101c-0.2-0.101-0.3-0.2-0.5-0.399C26.4,25.1,26.4,25.1,26.3,25
	c-0.1-0.1-0.2-0.199-0.3-0.299C25.9,24.6,25.9,24.6,25.8,24.5c-0.1-0.1-0.2-0.199-0.3-0.299C25.4,24.1,25.4,24,25.3,24
	C25.2,23.9,25.1,23.8,25,23.6c-0.1-0.101-0.1-0.2-0.2-0.2c-0.1-0.1-0.2-0.3-0.2-0.4s-0.1-0.1-0.1-0.2c-0.1-0.2-0.2-0.4-0.3-0.6
	c0-0.1-0.101-0.2-0.101-0.2C24,21.8,24,21.7,23.9,21.5c0-0.1-0.101-0.2-0.101-0.3c0-0.2-0.1-0.3-0.1-0.5c0-0.1,0-0.1,0-0.2
	c0-0.2-0.101-0.5-0.101-0.7v-0.1c0-0.2,0-0.4,0-0.7v-0.1v-0.1c0-0.2,0-0.3,0-0.5c0-0.1,0-0.2,0-0.2c0-0.1,0-0.2,0-0.3
	c0-0.1,0-0.2,0-0.3s0-0.2,0.101-0.3c0-0.1,0-0.2,0-0.2c0-0.2,0.1-0.4,0.2-0.5c0.1-0.3,0.199-0.6,0.3-0.9c1.3-2.9,4.1-4.8,7.5-4.8
	c1.899,0,3.7,0.7,5.1,1.8c1.2,1,2.2,2.4,2.7,3.9c0.2,0.7,0.4,1.5,0.4,2.3v0.1C39.8,20.1,39.4,21.3,38.9,22.5z"/>
<linearGradient id="SVGID_4_" gradientUnits="userSpaceOnUse" x1="241.0078" y1="-256.293" x2="239.4834" y2="-257.8174" gradientTransform="matrix(1 0 0 -1 -206 -250.2002)">
	<stop  offset="0" style="stop-color:#595651"/>
	<stop  offset="1" style="stop-color:#46433E"/>
</linearGradient>
<path opacity="0.2" fill="url(#SVGID_4_)" enable-background="new    " d="M36.7,12.6c-1.8-3.6-4.5-6.6-8-8.4
	c1.899-1.1,4.1-2,6.8-2.2l0,0C37.5,5.9,37.4,9.7,36.7,12.6z"/>
<linearGradient id="SVGID_5_" gradientUnits="userSpaceOnUse" x1="214.0391" y1="-256.3179" x2="215.6409" y2="-257.9714" gradientTransform="matrix(1 0 0 -1 -206 -250.2002)">
	<stop  offset="0" style="stop-color:#595651"/>
	<stop  offset="1" style="stop-color:#46433E"/>
</linearGradient>
<path opacity="0.1" fill="url(#SVGID_5_)" enable-background="new    " d="M14.2,4.2c-1.8,0.9-3.4,2.2-4.8,3.7
	c-1.2,1.4-2.3,2.9-3.1,4.7C5.6,9.7,5.5,5.9,7.4,2.1l0,0C10.1,2.2,12.4,3.1,14.2,4.2z"/>
<linearGradient id="SVGID_6_" gradientUnits="userSpaceOnUse" x1="214.1465" y1="-277.7861" x2="214.1465" y2="-287.1612" gradientTransform="matrix(1 0 0 -1 -206 -250.2002)">
	<stop  offset="0" style="stop-color:#595651"/>
	<stop  offset="1" style="stop-color:#46433E"/>
</linearGradient>
<path opacity="0.4" fill="url(#SVGID_6_)" enable-background="new    " d="M14.3,39.5l-2.1,2.4c0,0-7.8-1.8-9.8-8.699
	c-1.3-4.601,0.8-7,2.4-8.201C5.7,28.701,8,34.5,14.3,39.5z"/>
<linearGradient id="SVGID_7_" gradientUnits="userSpaceOnUse" x1="240.7715" y1="-277.7861" x2="240.7715" y2="-287.1612" gradientTransform="matrix(1 0 0 -1 -206 -250.2002)">
	<stop  offset="0" style="stop-color:#595651"/>
	<stop  offset="1" style="stop-color:#46433E"/>
</linearGradient>
<path opacity="0.6" fill="url(#SVGID_7_)" enable-background="new    " d="M40.5,33.201c-2,7-9.8,8.699-9.8,8.699L28.6,39.5
	c6.4-5,8.7-10.799,9.5-14.5C39.7,26.1,41.9,28.6,40.5,33.201z"/>
<path fill="#FFFFFF" d="M21.5,31.1c3.2-1.399,2.9-3.899,2.9-3.899C23.7,25.9,22.2,25.5,21.5,25.4l0,0c-0.6,0.1-2.2,0.4-2.9,1.801
	C18.6,27.1,18.3,29.701,21.5,31.1L21.5,31.1z"/>
<linearGradient id="SVGID_8_" gradientUnits="userSpaceOnUse" x1="227.4395" y1="-259.5972" x2="227.4395" y2="-267.6596" gradientTransform="matrix(1 0 0 -1 -206 -250.2002)">
	<stop  offset="0" style="stop-color:#595651"/>
	<stop  offset="1" style="stop-color:#46433E"/>
</linearGradient>
<path fill="url(#SVGID_8_)" d="M40.3,14.6C38.9,10.3,35,7.4,30.5,7.4c-3.8,0-7.2,2.1-9,5.3c-1.8-3.3-5.2-5.3-9-5.3
	c-4.5,0-8.4,2.9-9.8,7.2c-0.3,1-0.5,2-0.5,3.1C2.2,23.4,6.8,28,12.4,28c3.9,0,7.3-2.199,9-5.399c1.7,3.2,5.1,5.399,9,5.399
	C36.1,28,40.6,23.4,40.6,17.7C40.8,16.6,40.6,15.6,40.3,14.6z M37.8,21.4c-1.399,2.6-4.1,4.5-7.3,4.5c-0.3,0-0.5,0-0.8,0
	c-0.101,0-0.101,0-0.2,0c-0.2,0-0.4-0.1-0.6-0.1c-0.101,0-0.101,0-0.2,0c-0.2,0-0.3-0.1-0.5-0.1c-0.101,0-0.2,0-0.2-0.101
	c-0.2-0.101-0.3-0.101-0.5-0.2c-0.1,0-0.1-0.1-0.2-0.1c-0.2-0.1-0.3-0.2-0.5-0.2C26.7,25.1,26.7,25,26.6,25
	C26.4,24.9,26.2,24.8,26,24.6c0,0-0.1,0-0.1-0.101C25.7,24.4,25.6,24.3,25.4,24.1C25.3,24,25.3,24,25.2,23.9
	c-0.101-0.1-0.2-0.199-0.3-0.3C24.8,23.5,24.8,23.5,24.7,23.4c-0.101-0.1-0.2-0.2-0.3-0.3C24.3,23,24.3,22.9,24.2,22.9
	c-0.101-0.1-0.2-0.2-0.3-0.3c-0.101-0.1-0.101-0.2-0.2-0.2c-0.101-0.1-0.2-0.3-0.3-0.4c0-0.1-0.101-0.1-0.101-0.2
	c-0.1-0.2-0.2-0.4-0.3-0.6c0-0.1-0.1-0.2-0.1-0.2c-0.101-0.2-0.101-0.3-0.2-0.5c0-0.1-0.101-0.2-0.101-0.3c0-0.2-0.1-0.3-0.1-0.5
	c0-0.1,0-0.1,0-0.2c0-0.2-0.1-0.5-0.1-0.7v-0.1c0-0.2,0-0.4,0-0.7v-0.1v-0.1c0-0.2,0-0.3,0-0.5c0-0.1,0-0.2,0-0.2c0-0.1,0-0.2,0-0.3
	c0-0.1,0-0.2,0-0.3s0-0.2,0.1-0.3c0-0.1,0-0.2,0.1-0.2c0-0.2,0.101-0.4,0.2-0.5c0.101-0.3,0.2-0.6,0.3-0.9
	c1.301-2.9,4.101-4.8,7.5-4.8c3.7,0,6.801,2.4,7.801,5.7C38.6,16.2,38.8,17,38.8,17.8v0.1C38.7,19,38.4,20.3,37.8,21.4z M20.6,18.6
	c0,0.2-0.1,0.4-0.1,0.7c0,0.1,0,0.1,0,0.2s-0.1,0.3-0.1,0.4s-0.1,0.2-0.1,0.3c0,0.1-0.1,0.3-0.2,0.4c0,0.1-0.1,0.2-0.1,0.3
	c-0.1,0.2-0.2,0.4-0.3,0.7c0,0.1-0.1,0.1-0.1,0.2c-0.1,0.2-0.2,0.3-0.3,0.5c0,0.1-0.1,0.1-0.2,0.2s-0.2,0.3-0.3,0.4
	c-0.1,0.1-0.1,0.1-0.2,0.2s-0.2,0.2-0.3,0.399c-0.1,0.101-0.1,0.101-0.2,0.201C18,23.8,17.8,23.9,17.7,24.1
	c-0.1,0-0.1,0.101-0.2,0.101C17.1,24.5,16.7,24.8,16.3,25c0,0-0.1,0-0.1,0.101c-0.2,0.101-0.4,0.2-0.6,0.3c-0.1,0-0.1,0.1-0.2,0.1
	c-0.2,0.101-0.3,0.101-0.5,0.201c-0.1,0-0.1,0-0.2,0.1c-0.2,0.1-0.4,0.1-0.5,0.1c-0.1,0-0.1,0-0.2,0c-0.2,0-0.4,0.1-0.6,0.1
	c-0.1,0-0.1,0-0.1,0c-0.3,0-0.5,0-0.8,0C10,26,7.7,24.8,6.2,23c-1.2-1.4-1.9-3.2-1.9-5.2c0-0.6,0.1-1.2,0.2-1.7c0-0.1,0-0.2,0.1-0.3
	c0-0.2,0.1-0.3,0.1-0.5c1-3.3,4.1-5.7,7.8-5.7s6.8,2.4,7.8,5.7c0.1,0.2,0.1,0.3,0.1,0.5c0,0.1,0,0.2,0.1,0.3c0,0.1,0,0.1,0,0.2
	c0,0.1,0,0.2,0,0.3s0,0.2,0,0.3s0,0.2,0,0.3c0,0.1,0,0.2,0,0.4v0.1c0,0,0,0,0,0.1v0.1c0,0.2,0,0.4,0,0.6
	C20.6,18.4,20.6,18.5,20.6,18.6z"/>
<g>
	<path fill="#8CC449" d="M21.505,44.666c-0.154,0-0.306-0.034-0.444-0.1c-2.397-1.096-4.598-2.373-6.554-3.802l-1.417,1.68
		c-0.199,0.236-0.49,0.367-0.791,0.367c-0.077,0-0.153-0.009-0.23-0.026c-0.341-0.077-8.396-1.994-10.588-9.451
		c-1.396-4.746,0.598-7.503,2.26-8.891c-0.372-1.995-0.328-3.28-0.325-3.339c0-3.027,0.62-5.964,1.844-8.702
		C4.396,8.52,4.809,4.845,6.487,1.474C6.575,1.297,6.711,1.149,6.88,1.048c0.163-0.097,0.351-0.15,0.539-0.15
		c0.021,0,0.041,0,0.062,0.002c2.407,0.148,4.695,0.828,6.809,2.02c2.279-1.093,4.705-1.647,7.214-1.649
		c2.516,0.002,4.941,0.557,7.225,1.652c2.115-1.194,4.404-1.875,6.815-2.023c0.021-0.001,0.043-0.002,0.063-0.002
		c0.174,0,0.344,0.043,0.496,0.127c0.186,0.101,0.34,0.26,0.436,0.449c1.68,3.376,2.09,7.058,1.22,10.947
		c1.218,2.732,1.836,5.665,1.836,8.723c0.001,0.022,0.046,1.304-0.325,3.299c1.662,1.388,3.655,4.145,2.26,8.891
		c-2.193,7.457-10.248,9.374-10.59,9.451c-0.076,0.018-0.153,0.026-0.229,0.026c-0.302,0-0.593-0.131-0.79-0.367l-1.418-1.679
		c-1.957,1.431-4.162,2.709-6.566,3.807C21.796,44.635,21.65,44.666,21.505,44.666"/>
	<path fill="#363636" d="M35.607,1.933l0.004,0.002c1.934,3.883,1.77,7.675,1.061,10.596c1.204,2.582,1.888,5.508,1.888,8.614
		c0,0,0.058,1.467-0.433,3.726c1.621,1.144,3.756,3.595,2.41,8.172c-2.048,6.96-9.827,8.735-9.827,8.735l-2.048-2.428
		c-1.969,1.533-4.326,2.99-7.156,4.281v0.002h-0.001l0,0V43.63c-2.829-1.291-5.187-2.748-7.156-4.282L12.3,41.777
		c0,0-7.78-1.775-9.826-8.735c-1.346-4.577,0.789-7.029,2.41-8.173c-0.491-2.257-0.433-3.725-0.433-3.725
		c0-3.113,0.688-6.046,1.897-8.633C5.643,9.594,5.484,5.809,7.413,1.935l0.004-0.002c2.712,0.167,4.98,1.032,6.833,2.163
		c2.201-1.145,4.659-1.789,7.255-1.79l0,0h0.001c2.599,0.001,5.059,0.646,7.262,1.794C30.623,2.966,32.893,2.1,35.607,1.933
		 M7.417-0.136c-0.374,0-0.742,0.102-1.064,0.294C6.014,0.361,5.737,0.66,5.561,1.013C3.849,4.453,3.375,8.338,4.18,12.291
		c-1.189,2.772-1.793,5.735-1.798,8.821c-0.007,0.266-0.015,1.335,0.243,2.939c-2.475,2.351-3.255,5.767-2.135,9.573
		c2.361,8.032,10.985,10.085,11.351,10.169c0.153,0.034,0.308,0.052,0.46,0.052c0.602,0,1.183-0.263,1.581-0.734l0.803-0.953
		c1.796,1.237,3.773,2.353,5.9,3.327c0.277,0.138,0.59,0.216,0.921,0.216c0.326,0,0.634-0.075,0.908-0.209
		c2.132-0.978,4.114-2.094,5.913-3.334l0.803,0.953c0.397,0.472,0.979,0.734,1.581,0.734c0.153,0,0.308-0.018,0.46-0.052
		c0.366-0.084,8.99-2.137,11.352-10.169c1.12-3.807,0.34-7.222-2.136-9.572c0.258-1.604,0.251-2.674,0.242-2.941
		c-0.003-3.076-0.604-6.033-1.788-8.799c0.812-3.961,0.34-7.854-1.375-11.299c-0.189-0.38-0.492-0.693-0.864-0.896
		c-0.304-0.166-0.648-0.254-0.995-0.254c-0.041,0-0.084,0.001-0.125,0.003c-2.391,0.148-4.67,0.786-6.789,1.899
		c-2.281-1.015-4.692-1.528-7.184-1.53c-2.492,0.001-4.901,0.514-7.18,1.526c-2.119-1.112-4.396-1.749-6.783-1.896
		C7.502-0.135,7.459-0.136,7.417-0.136"/>
	<path fill="#FFFFFF" d="M12.491,26.759c-5.086,0-9.224-4.137-9.224-9.223c0-0.962,0.145-1.901,0.432-2.79
		c1.216-3.847,4.75-6.434,8.792-6.434c4.04,0,7.574,2.587,8.793,6.439c0.284,0.885,0.43,1.824,0.43,2.785
		C21.714,22.622,17.576,26.759,12.491,26.759"/>
	<path fill="#343434" d="M12.491,9.348c3.657,0,6.758,2.402,7.807,5.716c0.251,0.78,0.382,1.61,0.382,2.472
		c0,4.521-3.669,8.19-8.189,8.19c-4.521,0-8.189-3.669-8.189-8.19c0-0.862,0.13-1.692,0.382-2.472
		C5.732,11.75,8.833,9.348,12.491,9.348 M12.491,7.279c-4.495,0-8.425,2.878-9.78,7.161c-0.315,0.982-0.478,2.027-0.478,3.096
		c0,5.657,4.602,10.258,10.258,10.258c5.656,0,10.257-4.602,10.257-10.258c0-1.068-0.162-2.113-0.481-3.106
		C20.914,10.157,16.984,7.279,12.491,7.279"/>
	<path fill="#343434" d="M30.523,26.759c-5.089,0-9.23-4.137-9.23-9.223c0-0.958,0.145-1.896,0.431-2.789
		c1.219-3.847,4.754-6.435,8.799-6.435c4.038,0,7.574,2.587,8.799,6.438c0.281,0.898,0.424,1.834,0.424,2.786
		C39.746,22.622,35.608,26.759,30.523,26.759"/>
	<path fill="#343434" d="M30.523,9.348c3.658,0,6.759,2.402,7.812,5.716c0.244,0.78,0.377,1.61,0.377,2.472
		c0,4.521-3.669,8.19-8.189,8.19c-4.527,0-8.196-3.669-8.196-8.19c0-0.862,0.133-1.692,0.384-2.472
		C23.758,11.75,26.859,9.348,30.523,9.348 M30.523,7.279c-4.498,0-8.43,2.878-9.785,7.161c-0.317,0.987-0.479,2.031-0.479,3.097
		c0,5.657,4.604,10.258,10.265,10.258c5.656,0,10.258-4.602,10.258-10.258c0-1.056-0.16-2.097-0.473-3.092
		C38.945,10.156,35.014,7.279,30.523,7.279"/>
	<path fill="#FFFFFF" d="M20.68,17.537c0,4.521-3.669,8.189-8.189,8.189c-4.521,0-8.189-3.669-8.189-8.189
		c0-0.863,0.131-1.692,0.382-2.473c1.049-3.313,4.149-5.716,7.808-5.716c3.657,0,6.758,2.402,7.807,5.716
		C20.549,15.845,20.68,16.674,20.68,17.537"/>
	<path fill="#FFFFFF" d="M38.713,17.537c0,4.521-3.669,8.189-8.189,8.189c-4.527,0-8.196-3.669-8.196-8.189
		c0-0.863,0.133-1.692,0.382-2.473c1.049-3.313,4.15-5.716,7.814-5.716c3.658,0,6.759,2.402,7.812,5.716
		C38.58,15.845,38.713,16.674,38.713,17.537"/>
	<path fill="#FFFFFF" d="M21.514,31.447c3.162-1.377,2.885-3.937,2.885-3.937c-0.672-1.337-2.247-1.69-2.885-1.778h-0.002
		c-0.638,0.088-2.212,0.441-2.885,1.778c0,0-0.278,2.56,2.885,3.937H21.514z"/>
	<path fill="#D0D2D3" d="M21.793,14.74c0.726-0.875,1.619-1.641,2.66-2.241c4.746-2.742,10.82-1.115,13.562,3.634
		c0.576,1,0.966,2.06,1.157,3.138c0.247-1.9-0.11-3.89-1.14-5.673c-0.477-0.827-1.062-1.557-1.731-2.162
		C33.46,8.84,29.16,8.256,25.652,10.281C23.837,11.329,22.516,12.919,21.793,14.74"/>
	<path fill="#00ADEE" d="M17.971,18.365c0,3.027-2.454,5.48-5.481,5.48c-3.026,0-5.48-2.453-5.48-5.48c0-3.026,2.454-5.48,5.48-5.48
		C15.517,12.885,17.971,15.339,17.971,18.365"/>
	<path fill="#00ADEE" d="M36,18.365c0,3.027-2.453,5.48-5.48,5.48s-5.479-2.453-5.479-5.48c0-3.026,2.452-5.48,5.479-5.48
		S36,15.339,36,18.365"/>
	<path fill="#FFFFFF" d="M13.211,17.224c0,1.055-0.856,1.911-1.911,1.911c-1.056,0-1.911-0.856-1.911-1.911
		c0-1.056,0.855-1.911,1.911-1.911C12.354,15.312,13.211,16.168,13.211,17.224"/>
	<path fill="#FFFFFF" d="M31.241,17.224c0,1.055-0.856,1.911-1.911,1.911s-1.911-0.856-1.911-1.911c0-1.056,0.856-1.911,1.911-1.911
		S31.241,16.168,31.241,17.224"/>
	<path fill="#D0D2D3" d="M21.218,14.74c-0.726-0.875-1.62-1.641-2.659-2.241c-4.748-2.742-10.821-1.115-13.562,3.634
		c-0.578,1-0.966,2.06-1.158,3.138c-0.247-1.9,0.11-3.89,1.14-5.673c0.477-0.827,1.062-1.557,1.73-2.162
		c2.842-2.597,7.142-3.181,10.65-1.156C19.174,11.329,20.495,12.919,21.218,14.74"/>
	<path fill="#343434" d="M12.491,9.348c3.657,0,6.758,2.402,7.807,5.716c0.251,0.78,0.382,1.61,0.382,2.472
		c0,4.521-3.669,8.19-8.189,8.19c-4.521,0-8.189-3.669-8.189-8.19c0-0.862,0.13-1.692,0.382-2.472
		C5.732,11.75,8.833,9.348,12.491,9.348 M12.491,7.692c-4.313,0-8.085,2.762-9.386,6.872c-0.303,0.943-0.458,1.946-0.458,2.972
		c0,5.428,4.416,9.844,9.844,9.844c5.428,0,9.843-4.416,9.843-9.844c0-1.025-0.155-2.028-0.461-2.979
		C20.574,10.454,16.803,7.692,12.491,7.692"/>
	<path fill="#343434" d="M30.523,9.348c3.658,0,6.759,2.402,7.812,5.716c0.244,0.78,0.377,1.61,0.377,2.472
		c0,4.521-3.669,8.19-8.189,8.19c-4.527,0-8.196-3.669-8.196-8.19c0-0.862,0.133-1.692,0.384-2.472
		C23.758,11.75,26.859,9.348,30.523,9.348 M30.523,7.692c-4.316,0-8.09,2.762-9.391,6.872c-0.305,0.947-0.459,1.95-0.459,2.972
		c0,5.428,4.419,9.844,9.851,9.844c5.428,0,9.844-4.416,9.844-9.844c0-1.014-0.152-2.013-0.453-2.968
		C38.606,10.453,34.833,7.692,30.523,7.692"/>
</g>
</svg>
