<?xml version="1.0" encoding="utf-8"?>
<!-- Generator: Adobe Illustrator 14.0.0, SVG Export Plug-In . SVG Version: 6.00 Build 43363)  -->
<!DOCTYPE svg PUBLIC "-//W3C//DTD SVG 1.1//EN" "http://www.w3.org/Graphics/SVG/1.1/DTD/svg11.dtd">
<svg version="1.1" id="Layer_1" xmlns="http://www.w3.org/2000/svg" xmlns:xlink="http://www.w3.org/1999/xlink" x="0px" y="0px"
	 width="360px" height="290px" viewBox="0 0 360 290" enable-background="new 0 0 360 290" xml:space="preserve">
<g opacity="0.33">
	<path fill="none" d="M107.991,269.285l10.924,18.768l-0.563,0.969l-0.57,0.979h2.278h23.932h2.278l-0.569-0.979l-0.563-0.97
		l10.924-18.768h21.667l0.569,0.979L189.785,290h2.277h21.666h2.278l12.058-20.715h21.666l0.568,0.979L261.787,290h2.277
		l-12.057-20.715l12.057-20.715h23.933l10.924,18.77l-0.563,0.967l-12.057,20.715L285.732,290h2.276l12.058-20.715h23.933
		l10.924,18.768l-0.563,0.969L333.79,290h2.276H360v-3.893l-1.127,1.936h-21.68l-11.486-19.736l-0.562-0.967l10.924-18.77H360
		v-3.891l-1.127,1.936h-21.68l-11.486-19.736l-0.562-0.968l9.785-16.812h1.139h22.806l1.127,1.936v-7.785l-1.696,2.915l-0.568,0.978
		h-21.668l-12.057-20.715l12.057-20.715H360v-3.891l-1.127,1.936h-21.68l-11.486-19.737l-0.562-0.967l10.924-18.769h21.666
		l0.57,0.978l1.695,2.915v-7.785l-1.127,1.936h-22.807h-1.137l-10.92-18.758l10.92-18.759h1.137h22.807L360,86.749v-7.784
		l-1.695,2.913l-0.57,0.979h-21.666l-12.058-20.714l12.058-20.714H360v-3.893l-1.127,1.937h-21.68l-11.486-19.737l-0.562-0.967
		l9.785-16.812h1.139h22.806L360,3.892V0h-2.266h-21.668h-2.276l-10.918,18.758h-22.806h-1.14L288.01,0h-2.277l0.568,0.978
		l11.487,19.736L286.301,40.45l-0.568,0.978h-19.4l-0.568-0.978l-12.058-20.715l-0.563-0.967L264.064,0h-2.277l-10.918,18.758
		h-21.678L218.273,0h-2.278l10.924,18.768l-0.563,0.967L214.299,40.45l-0.568,0.978h-21.668l-12.057-20.715L192.062,0h-2.277
		l-11.488,19.735l-0.569,0.979h-21.667L145.138,1.945l0.563-0.968L146.271,0h-2.278h-21.667h-2.278l-12.057,20.714H84.059L72.002,0
		h-2.278H48.058H45.78L34.862,18.757H12.057h-1.139L0,0v3.914l9.778,16.8L0,37.515v3.935l10.911,18.747l-0.563,0.968L0,78.943v3.914
		l12.057-20.714H35.99l12.056,20.714L35.99,103.572H12.057L0,82.856v3.914l9.778,16.801L0,120.372v3.914l10.918-18.758h1.139h22.805
		l10.918,18.758l-10.918,18.758H12.057h-1.139L0,124.285v3.914L9.778,145L0,161.799v3.914L12.057,145H35.99l10.923,18.768
		l-0.563,0.969L34.292,185.45l-0.569,0.978H12.057L0,165.713v3.915l9.778,16.8L0,203.229v3.914l10.918-18.758h1.139h22.805
		l10.918,18.758L34.862,225.9H12.057h-1.139L0,207.143v3.914l9.778,16.801L0,244.656v3.936l10.911,18.748l-0.563,0.967L0,286.086
		V290l12.057-20.715H35.99L48.045,290h2.278l-0.569-0.979l-12.057-20.715l-0.563-0.968l10.924-18.769h21.667l0.569,0.978
		l11.488,19.736L70.294,289.02L69.725,290h2.278l12.057-20.715H107.991z M142.865,288.043h-21.678L109.7,268.307l-0.563-0.967
		l9.785-16.812h1.139h22.805l10.918,18.759L142.865,288.043z M190.925,167.67h1.138h22.807l10.918,18.758l-10.918,18.76h-21.68
		l-11.486-19.736l-0.562-0.969L190.925,167.67z M178.866,184.473h-22.805h-1.139l-10.918-18.76L156.062,145h21.667l0.569,0.979
		l11.488,19.734L178.866,184.473z M216.008,165.713l10.918-18.758h1.139h22.806l10.918,18.758l-10.918,18.76h-22.806h-1.139
		L216.008,165.713z M250.3,144.021L249.73,145h-21.666l-12.058-20.714l12.058-20.714h23.932l10.924,18.768l-0.562,0.968
		L250.3,144.021z M225.786,145l-11.487,19.736l-0.568,0.978h-21.668L180.006,145l12.057-20.714h21.668l0.568,0.978L225.786,145z
		 M190.354,123.307l-11.487,19.736h-22.805h-1.139l-10.918-18.758l12.057-20.714h23.933l10.924,18.768L190.354,123.307z
		 M154.353,102.593l-12.057,20.714l-0.569,0.978H120.06l-12.057-20.714l12.057-20.715h23.932l10.924,18.768L154.353,102.593z
		 M120.061,126.242h22.805L153.784,145l-10.918,18.758h-22.805h-1.139L108.004,145l10.918-18.758H120.061z M120.061,165.713h21.667
		l0.569,0.979l11.487,19.736l-10.918,18.76h-21.678L109.7,185.45l-0.563-0.968L120.061,165.713z M156.062,186.428h23.933
		l10.924,18.768l-0.563,0.971l-12.057,20.714l-0.569,0.978h-21.667l-12.057-20.713L156.062,186.428z M192.062,207.143h23.933
		l10.924,18.77l-0.563,0.968l-12.057,20.716l-0.568,0.978h-21.668l-12.057-20.716L192.062,207.143z M217.704,206.165l-0.563-0.97
		l10.924-18.769h21.666l0.569,0.979l11.487,19.736L250.869,225.9h-21.678L217.704,206.165z M252.009,186.428l10.918-18.758h1.14
		h22.805l10.918,18.758l-10.918,18.76h-22.805h-1.14L252.009,186.428z M286.301,164.736l-0.568,0.977h-21.666L252.009,145
		l12.058-20.714h23.932l10.924,18.769l-0.562,0.967L286.301,164.736z M286.87,122.329h-21.679l-11.486-19.736l-0.562-0.969
		l9.784-16.812h1.14h22.805l10.918,18.759L286.87,122.329z M250.869,101.615h-22.805h-1.14l-10.918-18.759l10.918-18.758h1.14
		h22.805l10.918,18.758L250.869,101.615z M225.786,103.571l-10.918,18.758h-21.679l-11.487-19.736l-0.563-0.969l10.924-18.768
		h21.668l0.568,0.978L225.786,103.571z M178.866,101.615h-21.678l-11.487-19.737l-0.563-0.967l10.924-18.768h21.667l0.569,0.978
		l11.488,19.736L178.866,101.615z M142.865,80.9h-21.678L109.7,61.165l-0.563-0.968l9.785-16.812h1.139h22.805l10.918,18.758
		L142.865,80.9z M118.915,80.911l-0.563,0.967l-12.057,20.715l-0.569,0.978H84.059L72.002,82.856l12.057-20.714h23.932
		L118.915,80.911z M84.059,105.527h22.805l10.918,18.758l-10.918,18.758H84.059H82.92l-10.918-18.758l10.918-18.758H84.059z
		 M84.059,145h21.667l0.569,0.979l11.487,19.734l-10.918,18.76H85.186l-11.487-19.736l-0.563-0.969L84.059,145z M107.991,186.428
		l10.924,18.768l-0.563,0.971L106.864,225.9H84.059H82.92l-10.918-18.758l12.057-20.716L107.991,186.428L107.991,186.428z
		 M120.061,207.143h21.667l0.569,0.979l11.487,19.735l-11.487,19.736l-0.569,0.979h-21.667l-12.057-20.715L120.061,207.143z
		 M156.062,267.33h-1.139l-10.918-18.76l10.918-18.758h1.139h22.805l10.919,18.758l-10.919,18.76H156.062z M214.868,288.043h-22.806
		h-1.139l-10.919-18.758l10.919-18.758h1.139h22.806l10.918,18.758L214.868,288.043z M262.355,247.594l-11.486,19.736h-22.805h-1.14
		l-10.918-18.76l12.058-20.715h23.932l10.924,18.77L262.355,247.594z M286.87,246.615h-21.679l-11.486-19.736l-0.562-0.968
		l10.924-18.769h21.666l0.568,0.979l11.487,19.734L286.87,246.615z M334.923,246.625l-0.563,0.969l-11.486,19.736h-21.68
		l-11.486-19.736l-0.562-0.969l10.924-18.77h23.933L334.923,246.625z M333.79,207.143L322.872,225.9h-22.806h-1.14l-10.918-18.758
		l12.058-20.716h21.666l0.569,0.979L333.79,207.143z M334.923,163.768l-0.563,0.969l-11.486,19.736h-22.807h-1.139l-10.918-18.76
		L300.066,145h23.933L334.923,163.768z M333.79,124.285l-10.918,18.758h-21.679l-11.487-19.736l-0.563-0.968l10.924-18.768h21.668
		l0.568,0.978L333.79,124.285z M333.79,82.856l-10.918,18.759h-22.806h-1.14L288.01,82.856l10.918-18.758h1.139h22.807
		L333.79,82.856z M300.066,20.713h23.933l10.924,18.769l-0.563,0.968l-12.057,20.714l-0.568,0.978h-21.668L288.01,41.428
		L300.066,20.713z M286.87,43.384l10.918,18.758l-11.487,19.735l-0.568,0.979h-21.666l-10.924-18.768l0.562-0.968l11.486-19.736
		H286.87z M228.064,20.713h23.932l12.057,20.715l-12.057,20.714h-23.932l-12.058-20.714L228.064,20.713z M192.062,43.384h22.806
		l10.918,18.758L214.868,80.9h-22.806h-1.139l-10.919-18.758l10.919-18.758H192.062L192.062,43.384z M156.062,22.67h22.805
		l10.919,18.758l-10.919,18.758h-22.805h-1.139l-10.918-18.758l10.918-18.758H156.062z M109.7,21.692l11.487-19.736h21.678
		l10.918,18.758L142.296,40.45l-0.569,0.978H120.06L109.137,22.66L109.7,21.692z M84.059,22.67h22.805l10.918,18.758l-10.918,18.758
		H84.059H82.92L72.002,41.428L82.92,22.67H84.059z M46.919,1.956h1.138h22.805l10.919,18.758L70.863,39.472H48.058H46.92
		L36.001,20.713L46.919,1.956z M34.862,60.186H13.184L1.696,40.45l-0.563-0.968l10.924-18.769h21.667l0.569,0.979L45.78,41.428
		L34.862,60.186z M37.697,61.165l-0.563-0.968l10.924-18.768h21.667l0.569,0.978l11.488,19.736L70.294,81.878l-0.569,0.979H50.323
		l-0.569-0.979L37.697,61.165z M37.134,105.517l0.563-0.968l11.487-19.736h21.678l10.919,18.759l-11.488,19.736l-0.569,0.978H48.058
		L37.134,105.517z M37.697,144.021l-0.563-0.967l9.786-16.812h1.138h22.805L81.782,145l-10.919,18.758H49.185L37.697,144.021z
		 M36.001,186.428l12.057-20.715H71.99l10.924,18.77l-0.564,0.969l-12.056,20.715l-0.569,0.979H48.058L36.001,186.428z
		 M34.862,267.33H13.184L1.696,247.594l-0.563-0.969l10.924-18.77h21.667l0.569,0.979L45.78,248.57L34.862,267.33z M48.058,246.615
		H46.92l-10.918-18.76L46.919,209.1h1.138h22.805l10.919,18.758l-10.919,18.759L48.058,246.615L48.058,246.615z M72.002,248.57
		l12.057-20.715h21.667l0.569,0.979l11.487,19.736l-10.918,18.76H84.059H82.92L72.002,248.57z"/>
	<polygon fill="#FFFFFF" points="0,128.199 0,161.799 9.778,145 	"/>
	<polygon fill="#FFFFFF" points="0,211.057 0,244.656 9.778,227.855 	"/>
	<polygon fill="#FFFFFF" points="12.057,225.9 34.862,225.9 45.78,207.143 34.862,188.385 12.057,188.385 10.918,188.385 0,207.143 
		10.918,225.9 	"/>
	<polygon fill="#FFFFFF" points="33.723,227.855 12.057,227.855 1.133,246.625 1.696,247.594 13.184,267.33 34.862,267.33 
		45.78,248.57 34.292,228.834 	"/>
	<polygon fill="#FFFFFF" points="81.782,269.285 70.294,249.549 69.725,248.57 48.058,248.57 37.134,267.34 37.697,268.307 
		49.754,289.021 50.323,290 69.725,290 70.294,289.021 	"/>
	<polygon fill="#FFFFFF" points="69.725,124.285 70.294,123.307 81.782,103.571 70.863,84.812 49.185,84.812 37.697,104.549 
		37.134,105.517 48.058,124.285 	"/>
	<polygon fill="#FFFFFF" points="82.92,143.043 84.059,143.043 106.864,143.043 117.782,124.285 106.864,105.527 84.059,105.527 
		82.92,105.527 72.002,124.285 	"/>
	<polygon fill="#FFFFFF" points="109.7,185.45 121.188,205.188 142.865,205.188 153.784,186.428 142.296,166.691 141.727,165.713 
		120.061,165.713 109.137,184.482 	"/>
	<polygon fill="#FFFFFF" points="34.292,21.692 33.723,20.713 12.057,20.713 1.133,39.482 1.696,40.45 13.184,60.186 34.862,60.186 
		45.78,41.428 	"/>
	<polygon fill="#FFFFFF" points="35.989,103.571 48.045,82.856 35.989,62.143 12.057,62.143 0,82.856 12.057,103.571 	"/>
	<polygon fill="#FFFFFF" points="141.727,41.428 142.296,40.45 153.784,20.713 142.865,1.956 121.188,1.956 109.7,21.692 
		109.137,22.66 120.061,41.428 	"/>
	<polygon fill="#FFFFFF" points="154.923,60.186 156.062,60.186 178.866,60.186 189.785,41.428 178.866,22.67 156.062,22.67 
		154.923,22.67 144.005,41.428 	"/>
	<polygon fill="#FFFFFF" points="177.728,62.143 156.062,62.143 145.138,80.911 145.701,81.878 157.188,101.615 178.866,101.615 
		189.785,82.856 178.297,63.121 	"/>
	<polygon fill="#FFFFFF" points="84.059,62.143 72.002,82.856 84.059,103.571 105.726,103.571 106.295,102.593 118.352,81.878 
		118.915,80.911 107.991,62.143 	"/>
	<polygon fill="#FFFFFF" points="213.729,82.856 192.062,82.856 181.139,101.625 181.702,102.593 193.189,122.329 214.868,122.329 
		225.786,103.571 214.299,83.834 	"/>
	<polygon fill="#FFFFFF" points="106.864,267.33 117.782,248.57 106.295,228.834 105.726,227.855 84.059,227.855 72.002,248.57 
		82.92,267.33 84.059,267.33 	"/>
	<polygon fill="#FFFFFF" points="192.062,250.527 190.925,250.527 180.006,269.285 190.925,288.043 192.062,288.043 
		214.868,288.043 225.786,269.285 214.868,250.527 	"/>
	<polygon fill="#FFFFFF" points="177.728,145 156.062,145 144.005,165.713 154.923,184.473 156.062,184.473 178.866,184.473 
		189.785,165.713 178.297,145.979 	"/>
	<polygon fill="#FFFFFF" points="193.189,205.188 214.868,205.188 225.786,186.428 214.868,167.67 192.062,167.67 190.925,167.67 
		181.139,184.482 181.702,185.45 	"/>
	<polygon fill="#FFFFFF" points="250.869,225.9 261.787,207.143 250.3,187.406 249.73,186.428 228.064,186.428 217.141,205.195 
		217.704,206.165 229.191,225.9 	"/>
	<polygon fill="#FFFFFF" points="213.729,248.57 214.299,247.594 226.355,226.879 226.919,225.911 215.995,207.143 192.062,207.143 
		180.006,227.855 192.062,248.57 	"/>
	<polygon fill="#FFFFFF" points="286.301,208.121 285.732,207.143 264.064,207.143 253.143,225.911 253.705,226.879 
		265.191,246.615 286.87,246.615 297.788,227.855 	"/>
	<polygon fill="#FFFFFF" points="286.87,84.812 264.064,84.812 262.927,84.812 253.143,101.625 253.705,102.593 265.191,122.329 
		286.87,122.329 297.788,103.571 	"/>
	<polygon fill="#FFFFFF" points="262.92,122.339 251.996,103.571 228.064,103.571 216.008,124.285 228.064,145 249.73,145 
		250.3,144.021 262.355,123.307 	"/>
	<polygon fill="#FFFFFF" points="357.734,124.285 336.066,124.285 325.145,143.054 325.707,144.021 337.193,163.758 
		358.873,163.758 360,161.822 360,128.178 358.305,125.263 	"/>
	<polygon fill="#FFFFFF" points="192.062,41.428 213.729,41.428 214.299,40.45 226.355,19.735 226.919,18.768 215.995,0 192.062,0 
		180.006,20.713 	"/>
	<polygon fill="#F5F5F5" points="300.066,18.757 322.872,18.757 333.79,0 288.01,0 298.928,18.757 	"/>
	<polygon fill="#FFFFFF" points="336.066,209.1 334.93,209.1 325.145,225.911 325.707,226.879 337.193,246.615 358.873,246.615 
		360,244.68 360,211.035 358.873,209.1 	"/>
	<polygon fill="#D9D9D9" points="0,86.77 0,120.372 9.778,103.571 	"/>
	<polygon fill="#D9D9D9" points="10.911,267.34 0,248.592 0,286.086 10.348,268.307 	"/>
	<polygon fill="#D9D9D9" points="70.863,209.1 48.058,209.1 46.919,209.1 36.001,227.855 46.919,246.615 48.058,246.615 
		70.863,246.615 81.782,227.855 	"/>
	<polygon fill="#D9D9D9" points="156.062,103.571 144.005,124.285 154.923,143.043 156.062,143.043 178.866,143.043 
		190.354,123.307 190.918,122.339 179.994,103.571 	"/>
	<polygon fill="#EBEBEB" points="120.061,250.527 118.922,250.527 109.137,267.34 109.7,268.307 121.188,288.043 142.865,288.043 
		153.784,269.285 142.865,250.527 	"/>
	<polygon fill="#D9D9D9" points="118.352,289.021 118.915,288.053 107.991,269.285 84.059,269.285 72.002,290 117.782,290 	"/>
	<polygon fill="#D9D9D9" points="228.064,184.473 250.869,184.473 261.787,165.713 250.869,146.955 228.064,146.955 
		226.926,146.955 216.008,165.713 226.926,184.473 	"/>
	<polygon fill="#D9D9D9" points="336.066,84.812 334.93,84.812 324.011,103.571 334.93,122.329 336.066,122.329 358.873,122.329 
		360,120.393 360,86.749 358.873,84.812 	"/>
	<polygon fill="#D9D9D9" points="107.991,20.713 120.048,0 72.002,0 84.059,20.713 	"/>
	<polygon fill="#D9D9D9" points="325.145,267.34 325.707,268.307 337.193,288.043 358.873,288.043 360,286.107 360,248.57 
		336.066,248.57 	"/>
	<polygon fill="#EDEDED" points="0,169.628 0,203.229 9.778,186.428 	"/>
	<polygon fill="#EDEDED" points="0,3.913 0,37.515 9.778,20.713 	"/>
	<polygon fill="#EDEDED" points="10.911,60.196 0,41.449 0,78.943 10.348,61.165 	"/>
	<polygon fill="#EDEDED" points="250.869,18.757 261.787,0 218.273,0 229.191,18.757 	"/>
	<polygon fill="#EDEDED" points="12.057,269.285 0,290 48.045,290 35.989,269.285 	"/>
	<polygon fill="#EDEDED" points="12.057,143.043 34.862,143.043 45.78,124.285 34.862,105.527 12.057,105.527 10.918,105.527 
		0,124.285 10.918,143.043 	"/>
	<polygon fill="#EDEDED" points="118.922,163.758 120.061,163.758 142.865,163.758 153.784,145 142.865,126.242 120.061,126.242 
		118.922,126.242 108.004,145 	"/>
	<polygon fill="#EDEDED" points="82.92,225.9 84.059,225.9 106.864,225.9 118.352,206.165 118.915,205.195 107.991,186.428 
		84.059,186.428 72.002,207.143 	"/>
	<polygon fill="#EDEDED" points="12.057,18.757 34.862,18.757 45.78,0 0,0 10.918,18.757 	"/>
	<polygon fill="#EDEDED" points="82.92,60.186 84.059,60.186 106.864,60.186 117.782,41.428 106.864,22.67 84.059,22.67 
		82.92,22.67 72.002,41.428 	"/>
	<polygon fill="#EDEDED" points="190.925,80.9 192.062,80.9 214.868,80.9 225.786,62.143 214.868,43.384 192.062,43.384 
		190.925,43.384 180.006,62.143 	"/>
	<polygon fill="#EDEDED" points="141.727,248.57 142.296,247.594 153.784,227.855 142.296,208.121 141.727,207.143 120.061,207.143 
		108.004,227.855 120.061,248.57 	"/>
	<polygon fill="#EDEDED" points="177.728,227.855 178.297,226.879 190.354,206.165 190.918,205.195 179.994,186.428 
		156.062,186.428 144.005,207.143 156.062,227.855 	"/>
	<polygon fill="#EDEDED" points="264.064,205.188 286.87,205.188 297.788,186.428 286.87,167.67 264.064,167.67 262.927,167.67 
		252.009,186.428 262.927,205.188 	"/>
	<polygon fill="#EDEDED" points="298.921,143.054 287.997,124.285 264.064,124.285 252.009,145 264.064,165.713 285.732,165.713 
		286.301,164.736 298.357,144.021 	"/>
	<polygon fill="#EDEDED" points="300.066,145 288.01,165.713 298.928,184.473 300.066,184.473 322.872,184.473 334.359,164.736 
		334.923,163.768 323.999,145 	"/>
	<polygon fill="#EDEDED" points="251.996,62.143 264.053,41.428 251.996,20.713 228.064,20.713 216.008,41.428 228.064,62.143 	"/>
	<polygon fill="#EDEDED" points="336.066,1.956 334.93,1.956 325.145,18.768 325.707,19.735 337.193,39.472 358.873,39.472 
		360,37.536 360,3.892 358.873,1.956 	"/>
	<polygon fill="#EDEDED" points="321.732,62.143 322.303,61.165 334.359,40.45 334.923,39.482 323.999,20.713 300.066,20.713 
		288.01,41.428 300.066,62.143 	"/>
	<polygon fill="#EDEDED" points="324.011,62.143 336.066,82.856 357.734,82.856 358.305,81.878 360,78.965 360,41.428 
		336.066,41.428 	"/>
	<polygon fill="#EDEDED" points="321.732,186.428 300.066,186.428 288.01,207.143 298.928,225.9 300.066,225.9 322.872,225.9 
		333.79,207.143 322.303,187.406 	"/>
	<polygon fill="#EDEDED" points="324.011,186.428 336.066,207.143 357.734,207.143 358.305,206.165 360,203.25 360,165.713 
		336.066,165.713 	"/>
	<polygon fill="#EDEDED" points="249.73,269.285 228.064,269.285 216.008,290 261.787,290 250.3,270.264 	"/>
	<polygon fill="#EBEBEB" points="70.863,163.758 81.782,145 70.863,126.242 48.058,126.242 46.919,126.242 37.134,143.054 
		37.697,144.021 49.185,163.758 	"/>
	<polygon fill="#D1D1D1" points="73.699,164.736 85.186,184.473 106.864,184.473 117.782,165.713 106.295,145.979 105.726,145 
		84.059,145 73.135,163.768 	"/>
	<polygon fill="#D1D1D1" points="33.723,186.428 34.292,185.45 46.349,164.736 46.913,163.768 35.989,145 12.057,145 0,165.713 
		12.057,186.428 	"/>
	<polygon fill="#D1D1D1" points="50.323,82.856 69.725,82.856 70.294,81.878 81.782,62.143 70.294,42.406 69.725,41.428 
		48.058,41.428 37.134,60.196 37.697,61.165 49.754,81.878 	"/>
	<polygon fill="#D1D1D1" points="120.061,82.856 108.004,103.571 120.061,124.285 141.727,124.285 142.296,123.307 154.353,102.593 
		154.917,101.625 143.993,82.856 	"/>
	<polygon fill="#D1D1D1" points="177.728,269.285 156.062,269.285 145.138,288.053 145.701,289.021 146.271,290 189.785,290 
		178.297,270.264 	"/>
	<polygon fill="#D1D1D1" points="228.064,227.855 216.008,248.57 226.926,267.33 228.064,267.33 250.869,267.33 262.355,247.594 
		262.92,246.625 251.996,227.855 	"/>
	<polygon fill="#E3E3E3" points="253.143,64.088 264.064,82.856 285.732,82.856 286.301,81.878 297.788,62.143 286.87,43.384 
		265.191,43.384 253.705,63.121 	"/>
	<polygon fill="#E3E3E3" points="300.066,64.099 298.928,64.099 288.01,82.856 298.928,101.615 300.066,101.615 322.872,101.615 
		333.79,82.856 322.872,64.099 	"/>
	<polygon fill="#D1D1D1" points="321.732,103.571 300.066,103.571 289.143,122.339 289.706,123.307 301.193,143.043 
		322.872,143.043 333.79,124.285 322.303,104.549 	"/>
	<polygon fill="#D1D1D1" points="145.138,1.945 156.062,20.713 177.728,20.713 178.297,19.735 189.785,0 146.271,0 145.701,0.978 	
		"/>
	<polygon fill="#D1D1D1" points="253.705,19.735 265.762,40.45 266.331,41.428 285.732,41.428 286.301,40.45 297.788,20.713 
		286.301,0.978 285.732,0 264.064,0 253.143,18.768 	"/>
	<polygon fill="#D1D1D1" points="300.066,227.855 289.143,246.625 289.706,247.594 301.193,267.33 322.872,267.33 334.359,247.594 
		334.923,246.625 323.999,227.855 	"/>
	<polygon fill="#EBEBEB" points="298.357,268.307 298.921,267.34 287.997,248.57 264.064,248.57 252.009,269.285 264.064,290 
		285.732,290 286.301,289.021 	"/>
	<polygon fill="#F7F7F7" points="69.725,207.143 70.294,206.165 82.35,185.45 82.914,184.482 71.99,165.713 48.058,165.713 
		36.001,186.428 48.058,207.143 	"/>
	<polygon fill="#F7F7F7" points="48.058,39.472 70.863,39.472 81.782,20.713 70.863,1.956 48.058,1.956 46.919,1.956 36.001,20.713 
		46.919,39.472 	"/>
	<polygon fill="#F7F7F7" points="120.061,43.384 118.922,43.384 109.137,60.196 109.7,61.165 121.188,80.9 142.865,80.9 
		153.784,62.143 142.865,43.384 	"/>
	<polygon fill="#F7F7F7" points="178.866,229.812 156.062,229.812 154.923,229.812 144.005,248.57 154.923,267.33 156.062,267.33 
		178.866,267.33 189.785,248.57 	"/>
	<polygon fill="#F7F7F7" points="213.729,124.285 192.062,124.285 180.006,145 192.062,165.713 213.729,165.713 214.299,164.736 
		225.786,145 214.299,125.263 	"/>
	<polygon fill="#F7F7F7" points="228.064,64.099 226.926,64.099 216.008,82.856 226.926,101.615 228.064,101.615 250.869,101.615 
		261.787,82.856 250.869,64.099 	"/>
</g>
</svg>
