<?xml version="1.0" encoding="utf-8"?>
<!-- Generator: Adobe Illustrator 14.0.0, SVG Export Plug-In . SVG Version: 6.00 Build 43363)  -->
<!DOCTYPE svg PUBLIC "-//W3C//DTD SVG 1.1//EN" "http://www.w3.org/Graphics/SVG/1.1/DTD/svg11.dtd">
<svg version="1.1" id="Слой_1" xmlns="http://www.w3.org/2000/svg" xmlns:xlink="http://www.w3.org/1999/xlink" x="0px" y="0px"
	 width="43px" height="45.8px" viewBox="0 0 43 45.8" enable-background="new 0 0 43 45.8" xml:space="preserve">
<g>
	<path d="M21.5,44.8c-0.2,0-0.3,0-0.4-0.1c-2.4-1.101-4.6-2.4-6.5-3.801l-1.4,1.7C13,42.8,12.7,43,12.4,43c-0.1,0-0.2,0-0.2,0
		c-0.3-0.1-8.4-2-10.6-9.399c-1.4-4.7,0.6-7.5,2.3-8.899c-0.4-2-0.3-3.301-0.3-3.301c0-3,0.6-6,1.8-8.7C4.4,8.6,4.8,5,6.5,1.6
		c0.1-0.2,0.2-0.3,0.4-0.4C7,1.1,7.2,1,7.4,1c0,0,0,0,0.1,0c2.4,0.1,4.7,0.8,6.8,2c2.3-1,4.7-1.6,7.2-1.6s4.9,0.6,7.2,1.7
		c2.1-1.2,4.399-1.9,6.8-2c0,0,0,0,0.1,0c0.2,0,0.301,0,0.5,0.1c0.2,0.1,0.301,0.3,0.4,0.4c1.7,3.4,2.1,7.1,1.2,10.9
		c1.2,2.7,1.8,5.7,1.8,8.7c0,0,0,1.3-0.3,3.299c1.7,1.4,3.7,4.101,2.3,8.9c-2.2,7.5-10.2,9.4-10.6,9.4c-0.101,0-0.2,0-0.2,0
		c-0.3,0-0.601-0.1-0.8-0.4l-1.4-1.699c-2,1.399-4.2,2.699-6.6,3.799C21.8,44.701,21.6,44.8,21.5,44.8z"/>
	<path d="M40.4,24.201c0-0.101,0-0.101,0-0.201C40.6,22.5,40.6,21.5,40.6,21.2c0-3.1-0.6-6-1.8-8.8c0.101-0.3,0.101-0.5,0.101-0.8
		c0.6-3.7,0.1-7.3-1.5-10.5c-0.2-0.4-0.5-0.7-0.9-0.9c-0.3-0.2-0.6-0.3-1-0.3h-0.1C33,0,30.7,0.7,28.6,1.8c-2.3-1-4.699-1.5-7.2-1.5
		c-2.5,0-4.9,0.5-7.2,1.5c-2-1-4.3-1.7-6.7-1.8H7.4C7,0,6.7,0.1,6.4,0.3C6,0.5,5.7,0.8,5.6,1.1C3.9,4.6,3.4,8.5,4.2,12.4
		c-1.2,2.8-1.8,5.7-1.8,8.8c0,0.3,0,1.3,0.2,2.9c-2.5,2.3-3.3,5.8-2.1,9.601c2.4,8,11,10.1,11.3,10.199c0.2,0,0.3,0,0.5,0
		c0.6,0,1.2-0.3,1.6-0.699l0.8-1c1.8,1.199,3.8,2.399,5.9,3.299c0.3,0.101,0.6,0.201,0.9,0.201s0.6-0.101,0.9-0.201
		c2.1-1,4.1-2.1,5.899-3.299l0.8,1c0.4,0.5,1,0.699,1.601,0.699c0.2,0,0.3,0,0.5,0c0.399-0.1,9-2.1,11.3-10.199
		C43.6,29.9,42.8,26.5,40.4,24.201z M40.5,33.1c-2,7-9.8,8.7-9.8,8.7l-2-2.4c-2,1.5-4.3,3-7.2,4.301C18.7,42.4,16.3,41,14.3,39.4
		l-2,2.4c0,0-7.8-1.801-9.8-8.7c-1.3-4.601,0.8-7,2.4-8.2c-0.1-0.4-0.2-0.8-0.2-1.199c-0.2-1.601-0.2-2.5-0.2-2.5
		c0-3.1,0.7-6,1.9-8.6c-0.1-0.3-0.1-0.6-0.2-1C5.6,8.9,5.7,5.5,7.4,2.1l0,0c2.7,0.2,5,1,6.8,2.2c2.2-1.1,4.7-1.8,7.3-1.8
		c1.3,0,2.6,0.2,3.8,0.5s2.4,0.8,3.5,1.3c1.9-1.1,4.101-2,6.8-2.2l0,0c1.4,2.8,1.7,5.6,1.5,8C37,10.9,36.9,11.7,36.7,12.4
		c0,0.1,0,0.2-0.101,0.3c1.2,2.6,1.9,5.5,1.9,8.6c0,0,0,0.7-0.1,2C38.3,23.8,38.2,24.4,38.1,25C38.4,25.201,38.7,25.5,39,25.8
		C40.4,27.1,41.6,29.4,40.5,33.1z"/>
	<g>
		<g>
			<path d="M20.7,17.7c0,4.5-3.7,8.2-8.2,8.2s-8.2-3.7-8.2-8.2c0-0.9,0.1-1.7,0.4-2.5c1-3.3,4.1-5.7,7.8-5.7s6.8,2.4,7.8,5.7
				C20.5,16,20.7,16.8,20.7,17.7z"/>
		</g>
		<g>
			<path d="M38.7,17.7c0,4.5-3.7,8.2-8.2,8.2s-8.2-3.7-8.2-8.2c0-0.9,0.101-1.7,0.4-2.5c1-3.3,4.1-5.7,7.8-5.7s6.8,2.4,7.8,5.7
				C38.6,16,38.7,16.8,38.7,17.7z"/>
		</g>
	</g>
	<g>
		<circle cx="12.5" cy="18.5" r="5.5"/>
	</g>
	<g>
		<circle cx="30.5" cy="18.5" r="5.5"/>
	</g>
	<circle cx="11.3" cy="17.3" r="1.9"/>
	<circle cx="29.3" cy="17.3" r="1.9"/>
	<path d="M40.6,21.2c0-3.1-0.6-6-1.8-8.8c0.101-0.3,0.101-0.5,0.101-0.8C38.3,11,37.7,10.5,37,10.1c-1.6-1-3.5-1.6-5.5-1.6
		c-3.8,0-7.2,2.1-9,5.3c-1.8-3.3-5.2-5.3-9-5.3c-2.9,0-5.5,1.2-7.4,3.2c-1.1,1.1-1.9,2.5-2.4,4c-0.3,1-0.5,2-0.5,3.1
		c0,1.8,0.5,3.6,1.3,5.1c1.8,3.1,5.1,5.2,8.9,5.2c3.9,0,7.3-2.2,9-5.399c1.699,3.199,5.1,5.399,9,5.399c1.6,0,3.1-0.399,4.399-1
		c-4.2,5.3-10.6,8.7-17.9,8.7c-2.9,0-5.7-0.5-8.2-1.5c2.5,3.1,6.2,6.1,11.6,8.6C31.9,39,36,32,37.6,27.1c0.5-0.399,1-0.8,1.5-1.3
		s1-1.1,1.4-1.801C40.6,22.5,40.6,21.5,40.6,21.2z M21.8,18.8c0,0.2,0,0.4,0,0.6c0,0.1,0,0.1,0,0.2c0,0.2-0.1,0.4-0.1,0.6
		c0,0.1,0,0.1,0,0.2s-0.1,0.3-0.1,0.4c0,0.1-0.1,0.2-0.1,0.3s-0.1,0.3-0.2,0.4c0,0.1-0.1,0.2-0.1,0.3c-0.1,0.2-0.2,0.4-0.3,0.7
		c0,0.1-0.1,0.1-0.1,0.2c-0.1,0.2-0.2,0.3-0.3,0.5c0,0.1-0.1,0.1-0.2,0.2c-0.1,0.1-0.2,0.301-0.3,0.4S19.9,23.9,19.8,24
		c-0.1,0.101-0.2,0.201-0.3,0.4c-0.1,0.1-0.1,0.1-0.2,0.2C19.2,24.701,19,24.8,18.9,25c0,0-0.1,0.101-0.2,0.101
		c-0.4,0.3-0.8,0.601-1.2,0.8c0,0-0.1,0-0.1,0.1C17.2,26.1,17,26.201,16.8,26.3c-0.1,0-0.1,0.1-0.2,0.1c-0.2,0.1-0.3,0.1-0.5,0.2
		c-0.1,0-0.1,0-0.2,0.101c-0.2,0.1-0.4,0.1-0.5,0.1s-0.1,0-0.2,0c-0.2,0-0.4,0.1-0.6,0.1h-0.1c-0.3,0-0.5,0-0.8,0
		c-2.5,0-4.8-1.199-6.3-3c-1.2-1.4-1.9-3.2-1.9-5.2c0-0.6,0.1-1.2,0.2-1.7c0-0.1,0-0.2,0.1-0.3c0-0.2,0.1-0.3,0.1-0.5
		c1-3.3,4.1-5.7,7.8-5.7c3.7,0,6.8,2.4,7.8,5.7c0.1,0.2,0.1,0.3,0.1,0.5c0,0.1,0,0.2,0.1,0.3c0,0.1,0,0.1,0,0.2c0,0.1,0,0.2,0,0.3
		s0,0.2,0,0.3c0,0.1,0,0.2,0,0.3s0,0.2,0,0.4v0.1C21.8,18.7,21.7,18.7,21.8,18.8C21.7,18.8,21.8,18.8,21.8,18.8z M38.9,22.5
		C38.8,22.8,38.6,23,38.4,23.3c-1.5,2.2-4,3.7-6.801,3.7c-0.3,0-0.5,0-0.8,0c-0.1,0-0.1,0-0.2,0C30.4,27,30.2,26.9,30,26.9h-0.2
		c-0.2,0-0.399-0.1-0.5-0.1c-0.1,0-0.2,0-0.2-0.1C28.9,26.6,28.8,26.6,28.6,26.5c-0.1,0-0.1-0.1-0.199-0.1
		c-0.2-0.1-0.301-0.199-0.5-0.199c0,0-0.101,0-0.2-0.101C27.5,26,27.3,25.9,27.1,25.701c0,0-0.1,0-0.1-0.101
		c-0.2-0.101-0.3-0.2-0.5-0.399C26.4,25.1,26.4,25.1,26.3,25c-0.1-0.1-0.2-0.199-0.3-0.299C25.9,24.6,25.9,24.6,25.8,24.5
		c-0.1-0.1-0.2-0.199-0.3-0.299C25.4,24.1,25.4,24,25.3,24C25.2,23.9,25.1,23.8,25,23.6c-0.1-0.101-0.1-0.2-0.2-0.2
		c-0.1-0.1-0.2-0.3-0.2-0.4s-0.1-0.1-0.1-0.2c-0.1-0.2-0.2-0.4-0.3-0.6c0-0.1-0.101-0.2-0.101-0.2C24,21.8,24,21.7,23.9,21.5
		c0-0.1-0.101-0.2-0.101-0.3c0-0.2-0.1-0.3-0.1-0.5c0-0.1,0-0.1,0-0.2c0-0.2-0.101-0.5-0.101-0.7v-0.1c0-0.2,0-0.4,0-0.7v-0.1v-0.1
		c0-0.2,0-0.3,0-0.5c0-0.1,0-0.2,0-0.2c0-0.1,0-0.2,0-0.3c0-0.1,0-0.2,0-0.3s0-0.2,0.101-0.3c0-0.1,0-0.2,0-0.2
		c0-0.2,0.1-0.4,0.2-0.5c0.1-0.3,0.199-0.6,0.3-0.9c1.3-2.9,4.1-4.8,7.5-4.8c1.899,0,3.7,0.7,5.1,1.8c1.2,1,2.2,2.4,2.7,3.9
		c0.2,0.7,0.4,1.5,0.4,2.3v0.1C39.8,20.1,39.4,21.3,38.9,22.5z"/>
	<path d="M36.7,12.6c-1.8-3.6-4.5-6.6-8-8.4c1.899-1.1,4.1-2,6.8-2.2l0,0C37.5,5.9,37.4,9.7,36.7,12.6z"/>
	<path d="M14.2,4.2c-1.8,0.9-3.4,2.2-4.8,3.7c-1.2,1.4-2.3,2.9-3.1,4.7C5.6,9.7,5.5,5.9,7.4,2.1l0,0C10.1,2.2,12.4,3.1,14.2,4.2z"/>
	<path d="M14.3,39.5l-2.1,2.4c0,0-7.8-1.8-9.8-8.699c-1.3-4.601,0.8-7,2.4-8.201C5.7,28.701,8,34.5,14.3,39.5z"/>
	<path d="M40.5,33.201c-2,7-9.8,8.699-9.8,8.699L28.6,39.5c6.4-5,8.7-10.799,9.5-14.5C39.7,26.1,41.9,28.6,40.5,33.201z"/>
	<path d="M21.5,31.1c3.2-1.399,2.9-3.899,2.9-3.899C23.7,25.9,22.2,25.5,21.5,25.4l0,0c-0.6,0.1-2.2,0.4-2.9,1.801
		C18.6,27.1,18.3,29.701,21.5,31.1L21.5,31.1z"/>
	<path d="M40.3,14.6C38.9,10.3,35,7.4,30.5,7.4c-3.8,0-7.2,2.1-9,5.3c-1.8-3.3-5.2-5.3-9-5.3c-4.5,0-8.4,2.9-9.8,7.2
		c-0.3,1-0.5,2-0.5,3.1C2.2,23.4,6.8,28,12.4,28c3.9,0,7.3-2.199,9-5.399c1.7,3.2,5.1,5.399,9,5.399C36.1,28,40.6,23.4,40.6,17.7
		C40.8,16.6,40.6,15.6,40.3,14.6z M37.8,21.4c-1.399,2.6-4.1,4.5-7.3,4.5c-0.3,0-0.5,0-0.8,0c-0.101,0-0.101,0-0.2,0
		c-0.2,0-0.4-0.1-0.6-0.1c-0.101,0-0.101,0-0.2,0c-0.2,0-0.3-0.1-0.5-0.1c-0.101,0-0.2,0-0.2-0.101c-0.2-0.101-0.3-0.101-0.5-0.2
		c-0.1,0-0.1-0.1-0.2-0.1c-0.2-0.1-0.3-0.2-0.5-0.2C26.7,25.1,26.7,25,26.6,25C26.4,24.9,26.2,24.8,26,24.6c0,0-0.1,0-0.1-0.101
		C25.7,24.4,25.6,24.3,25.4,24.1C25.3,24,25.3,24,25.2,23.9c-0.101-0.1-0.2-0.199-0.3-0.3C24.8,23.5,24.8,23.5,24.7,23.4
		c-0.101-0.1-0.2-0.2-0.3-0.3C24.3,23,24.3,22.9,24.2,22.9c-0.101-0.1-0.2-0.2-0.3-0.3c-0.101-0.1-0.101-0.2-0.2-0.2
		c-0.101-0.1-0.2-0.3-0.3-0.4c0-0.1-0.101-0.1-0.101-0.2c-0.1-0.2-0.2-0.4-0.3-0.6c0-0.1-0.1-0.2-0.1-0.2
		c-0.101-0.2-0.101-0.3-0.2-0.5c0-0.1-0.101-0.2-0.101-0.3c0-0.2-0.1-0.3-0.1-0.5c0-0.1,0-0.1,0-0.2c0-0.2-0.1-0.5-0.1-0.7v-0.1
		c0-0.2,0-0.4,0-0.7v-0.1v-0.1c0-0.2,0-0.3,0-0.5c0-0.1,0-0.2,0-0.2c0-0.1,0-0.2,0-0.3c0-0.1,0-0.2,0-0.3s0-0.2,0.1-0.3
		c0-0.1,0-0.2,0.1-0.2c0-0.2,0.101-0.4,0.2-0.5c0.101-0.3,0.2-0.6,0.3-0.9c1.301-2.9,4.101-4.8,7.5-4.8c3.7,0,6.801,2.4,7.801,5.7
		C38.6,16.2,38.8,17,38.8,17.8v0.1C38.7,19,38.4,20.3,37.8,21.4z M20.6,18.6c0,0.2-0.1,0.4-0.1,0.7c0,0.1,0,0.1,0,0.2
		s-0.1,0.3-0.1,0.4s-0.1,0.2-0.1,0.3c0,0.1-0.1,0.3-0.2,0.4c0,0.1-0.1,0.2-0.1,0.3c-0.1,0.2-0.2,0.4-0.3,0.7c0,0.1-0.1,0.1-0.1,0.2
		c-0.1,0.2-0.2,0.3-0.3,0.5c0,0.1-0.1,0.1-0.2,0.2s-0.2,0.3-0.3,0.4c-0.1,0.1-0.1,0.1-0.2,0.2s-0.2,0.2-0.3,0.399
		c-0.1,0.101-0.1,0.101-0.2,0.201C18,23.8,17.8,23.9,17.7,24.1c-0.1,0-0.1,0.101-0.2,0.101C17.1,24.5,16.7,24.8,16.3,25
		c0,0-0.1,0-0.1,0.101c-0.2,0.101-0.4,0.2-0.6,0.3c-0.1,0-0.1,0.1-0.2,0.1c-0.2,0.101-0.3,0.101-0.5,0.201c-0.1,0-0.1,0-0.2,0.1
		c-0.2,0.1-0.4,0.1-0.5,0.1c-0.1,0-0.1,0-0.2,0c-0.2,0-0.4,0.1-0.6,0.1c-0.1,0-0.1,0-0.1,0c-0.3,0-0.5,0-0.8,0
		C10,26,7.7,24.8,6.2,23c-1.2-1.4-1.9-3.2-1.9-5.2c0-0.6,0.1-1.2,0.2-1.7c0-0.1,0-0.2,0.1-0.3c0-0.2,0.1-0.3,0.1-0.5
		c1-3.3,4.1-5.7,7.8-5.7s6.8,2.4,7.8,5.7c0.1,0.2,0.1,0.3,0.1,0.5c0,0.1,0,0.2,0.1,0.3c0,0.1,0,0.1,0,0.2c0,0.1,0,0.2,0,0.3
		s0,0.2,0,0.3s0,0.2,0,0.3c0,0.1,0,0.2,0,0.4v0.1c0,0,0,0,0,0.1v0.1c0,0.2,0,0.4,0,0.6C20.6,18.4,20.6,18.5,20.6,18.6z"/>
</g>
</svg>
