<?xml version="1.0" encoding="utf-8"?>
<!-- Generator: Adobe Illustrator 14.0.0, SVG Export Plug-In . SVG Version: 6.00 Build 43363)  -->
<!DOCTYPE svg PUBLIC "-//W3C//DTD SVG 1.1//EN" "http://www.w3.org/Graphics/SVG/1.1/DTD/svg11.dtd">
<svg version="1.1" id="Layer_1" xmlns="http://www.w3.org/2000/svg" xmlns:xlink="http://www.w3.org/1999/xlink" x="0px" y="0px"
	 width="543.055px" height="140.5px" viewBox="0 0 543.055 140.5" enable-background="new 0 0 543.055 140.5" xml:space="preserve">
<g>
	<path fill="#FFFFFF" d="M434.262,103.451c-2.732,0-4.859-2.193-4.859-4.86c0-2.664,2.154-4.885,4.887-4.885
		c2.73,0,4.857,2.191,4.857,4.859C439.146,101.23,436.994,103.451,434.262,103.451 M434.289,94.123c-2.531,0-4.443,2.02-4.443,4.469
		c0,2.452,1.896,4.444,4.416,4.444c2.529,0,4.441-2.02,4.441-4.469C438.703,96.115,436.807,94.123,434.289,94.123 M435.191,98.929
		l1.547,2.006h-0.916l-1.441-1.887h-1.277v1.887h-0.742v-4.995h2.238c1.104,0,1.883,0.578,1.883,1.508
		C436.482,98.269,435.943,98.753,435.191,98.929 M434.572,96.613h-1.469v1.779h1.426c0.701,0,1.186-0.324,1.186-0.904
		C435.715,96.937,435.283,96.613,434.572,96.613"/>
	<path fill="#FFFFFF" d="M252.177,61.559c-1.627-2.22-3.706-3.99-6.236-5.306c-2.53-1.317-5.5-1.976-8.907-1.976
		c-3.049,0-5.823,0.542-8.327,1.627c-2.506,1.084-4.662,2.569-6.469,4.454c-1.809,1.886-3.202,4.119-4.183,6.7
		c-0.981,2.583-1.472,5.372-1.472,8.365c0,3.101,0.477,5.939,1.434,8.521c0.954,2.584,2.311,4.803,4.066,6.662
		c1.755,1.859,3.897,3.291,6.43,4.299c2.529,1.008,5.369,1.51,8.521,1.51c4.544,0,8.417-1.031,11.618-3.098
		c3.202-2.064,5.577-5.5,7.126-10.303h-9.681c-0.363,1.24-1.344,2.414-2.945,3.525c-1.6,1.111-3.512,1.664-5.73,1.664
		c-3.1,0-5.475-0.799-7.127-2.4c-1.653-1.6-2.557-4.184-2.711-7.745h28.893c0.206-3.101-0.052-6.069-0.773-8.909
		C254.978,66.311,253.804,63.779,252.177,61.559 M227.583,71.086c0.051-0.773,0.219-1.652,0.503-2.633
		c0.283-0.981,0.773-1.91,1.472-2.789c0.697-0.877,1.627-1.613,2.789-2.207c1.162-0.594,2.62-0.892,4.377-0.892
		c2.684,0,4.686,0.725,6.003,2.169c1.317,1.447,2.233,3.564,2.75,6.352H227.583z"/>
	<path fill="#FFFFFF" d="M287.926,60.242h-0.154c-1.24-1.962-2.932-3.447-5.074-4.454c-2.143-1.007-4.402-1.511-6.777-1.511
		c-2.943,0-5.528,0.581-7.747,1.743c-2.222,1.162-4.067,2.699-5.539,4.609c-1.474,1.911-2.583,4.119-3.331,6.623
		c-0.749,2.506-1.123,5.101-1.123,7.785c0,2.789,0.374,5.475,1.123,8.057c0.748,2.582,1.857,4.867,3.331,6.855
		c1.472,1.988,3.343,3.562,5.614,4.725c2.273,1.162,4.908,1.742,7.904,1.742c2.633,0,4.996-0.477,7.088-1.432
		s3.781-2.518,5.072-4.688h0.156v5.113h10.457V40.102h-11V60.242z M287.85,80.072c-0.311,1.549-0.828,2.932-1.551,4.145
		s-1.691,2.182-2.904,2.904c-1.215,0.725-2.725,1.084-4.531,1.084c-1.705,0-3.164-0.373-4.377-1.123
		c-1.215-0.748-2.22-1.729-3.022-2.943c-0.802-1.213-1.383-2.594-1.742-4.145c-0.362-1.548-0.543-3.097-0.543-4.646
		c0-1.651,0.168-3.239,0.504-4.765c0.336-1.523,0.877-2.878,1.627-4.067c0.748-1.187,1.743-2.142,2.983-2.866
		c1.24-0.723,2.762-1.084,4.57-1.084c1.807,0,3.305,0.361,4.492,1.084c1.188,0.724,2.156,1.666,2.904,2.828
		c0.748,1.161,1.279,2.505,1.59,4.028c0.309,1.524,0.463,3.111,0.463,4.763C288.312,76.923,288.158,78.524,287.85,80.072"/>
	<path fill="#FFFFFF" d="M337.773,61.559c-1.627-2.22-3.707-3.99-6.236-5.306c-2.531-1.317-5.5-1.976-8.908-1.976
		c-3.049,0-5.822,0.542-8.328,1.627c-2.504,1.084-4.66,2.569-6.467,4.454c-1.809,1.886-3.203,4.119-4.184,6.7
		c-0.982,2.583-1.473,5.372-1.473,8.365c0,3.101,0.479,5.939,1.434,8.521c0.955,2.584,2.311,4.803,4.066,6.662
		s3.898,3.291,6.43,4.299c2.529,1.008,5.371,1.51,8.521,1.51c4.543,0,8.416-1.031,11.619-3.098c3.201-2.064,5.578-5.5,7.127-10.303
		h-9.684c-0.361,1.24-1.344,2.414-2.943,3.525c-1.602,1.111-3.512,1.664-5.732,1.664c-3.098,0-5.475-0.799-7.127-2.4
		c-1.652-1.6-2.555-4.184-2.711-7.745h28.895c0.205-3.101-0.053-6.069-0.775-8.909C340.574,66.311,339.398,63.779,337.773,61.559
		 M313.178,71.086c0.051-0.773,0.219-1.652,0.504-2.633c0.283-0.981,0.775-1.91,1.473-2.789c0.697-0.877,1.625-1.613,2.787-2.207
		c1.162-0.594,2.621-0.892,4.377-0.892c2.686,0,4.688,0.725,6.004,2.169c1.316,1.447,2.232,3.564,2.75,6.352H313.178z"/>
	<path fill="#FFFFFF" d="M381.809,60.784c-1.498-1.962-3.383-3.537-5.654-4.725c-2.273-1.188-4.984-1.782-8.133-1.782
		c-2.479,0-4.752,0.491-6.816,1.472c-2.066,0.981-3.771,2.556-5.113,4.725h-0.154v-5.113h-10.459v54.069h11V90.453h0.156
		c1.342,1.963,3.059,3.445,5.15,4.453s4.377,1.51,6.855,1.51c2.943,0,5.512-0.568,7.707-1.703s4.029-2.66,5.5-4.57
		c1.473-1.91,2.568-4.105,3.293-6.584c0.723-2.479,1.084-5.061,1.084-7.747c0-2.838-0.361-5.563-1.084-8.172
		C384.416,65.032,383.307,62.747,381.809,60.784 M374.76,80.226c-0.309,1.551-0.84,2.906-1.588,4.068
		c-0.748,1.16-1.73,2.104-2.943,2.826c-1.213,0.725-2.725,1.084-4.533,1.084c-1.754,0-3.252-0.359-4.49-1.084
		c-1.24-0.723-2.234-1.666-2.982-2.826c-0.75-1.162-1.293-2.518-1.627-4.068c-0.338-1.548-0.504-3.123-0.504-4.725
		c0-1.651,0.154-3.253,0.465-4.802c0.311-1.549,0.838-2.917,1.588-4.105c0.748-1.188,1.73-2.156,2.943-2.905
		c1.213-0.748,2.723-1.124,4.531-1.124c1.756,0,3.24,0.376,4.455,1.124c1.213,0.749,2.205,1.73,2.982,2.943
		c0.773,1.214,1.328,2.595,1.664,4.144c0.336,1.55,0.504,3.126,0.504,4.726C375.225,77.103,375.07,78.678,374.76,80.226"/>
	<path fill="#FFFFFF" d="M428.441,66.71c-0.982-2.607-2.377-4.828-4.184-6.662c-1.809-1.833-3.988-3.253-6.545-4.26
		c-2.557-1.007-5.41-1.511-8.561-1.511s-5.99,0.504-8.52,1.511c-2.531,1.007-4.701,2.427-6.508,4.26
		c-1.809,1.834-3.203,4.055-4.184,6.662c-0.98,2.608-1.471,5.513-1.471,8.713c0,3.203,0.49,6.096,1.471,8.676
		c0.98,2.584,2.375,4.791,4.184,6.623c1.807,1.834,3.977,3.242,6.508,4.223c2.529,0.98,5.369,1.471,8.52,1.471
		s6.004-0.49,8.561-1.471s4.736-2.389,6.545-4.223c1.807-1.832,3.201-4.039,4.184-6.623c0.98-2.58,1.471-5.473,1.471-8.676
		C429.912,72.223,429.422,69.318,428.441,66.71 M418.449,80.111c-0.311,1.523-0.84,2.893-1.588,4.105
		c-0.75,1.213-1.758,2.182-3.021,2.904c-1.266,0.725-2.828,1.084-4.688,1.084s-3.408-0.359-4.646-1.084
		c-1.24-0.723-2.234-1.691-2.982-2.904c-0.75-1.213-1.279-2.582-1.588-4.105c-0.311-1.523-0.465-3.085-0.465-4.688
		c0-1.6,0.154-3.175,0.465-4.725c0.309-1.549,0.838-2.917,1.588-4.105c0.748-1.188,1.742-2.156,2.982-2.905
		c1.238-0.748,2.787-1.123,4.646-1.123s3.422,0.375,4.688,1.123c1.264,0.749,2.271,1.717,3.021,2.905
		c0.748,1.188,1.277,2.556,1.588,4.105c0.309,1.549,0.465,3.125,0.465,4.725C418.914,77.026,418.758,78.587,418.449,80.111"/>
	<path fill="#8CC449" d="M156.17,126.299c-0.373,0-0.739-0.084-1.073-0.24c-5.795-2.648-11.114-5.734-15.842-9.189l-3.425,4.059
		c-0.481,0.57-1.184,0.889-1.911,0.889c-0.186,0-0.371-0.021-0.557-0.062c-0.825-0.189-20.295-4.822-25.593-22.846
		c-3.374-11.473,1.445-18.135,5.464-21.489c-0.898-4.821-0.792-7.928-0.786-8.071c-0.002-7.316,1.497-14.416,4.456-21.033
		c-2.088-9.383-1.091-18.266,2.965-26.413c0.213-0.427,0.543-0.784,0.95-1.03c0.393-0.234,0.847-0.362,1.303-0.362
		c0.05,0,0.1,0.001,0.149,0.005c5.818,0.358,11.348,2,16.457,4.882c5.51-2.641,11.371-3.981,17.438-3.985
		c6.081,0.004,11.946,1.346,17.464,3.993c5.113-2.887,10.646-4.531,16.473-4.89c0.051-0.004,0.104-0.005,0.154-0.005
		c0.418,0,0.829,0.104,1.197,0.306c0.448,0.245,0.822,0.628,1.052,1.086c4.062,8.161,5.054,17.06,2.95,26.461
		c2.943,6.604,4.437,13.692,4.437,21.083c0.004,0.054,0.112,3.153-0.787,7.974c4.019,3.354,8.836,10.018,5.463,21.488
		c-5.3,18.024-24.769,22.657-25.595,22.846c-0.185,0.041-0.371,0.062-0.556,0.062c-0.728,0-1.431-0.318-1.91-0.889l-3.425-4.059
		c-4.733,3.461-10.062,6.551-15.873,9.203C156.874,126.227,156.519,126.299,156.17,126.299"/>
	<path fill="#363636" d="M190.256,23.009l0.01,0.006c4.673,9.385,4.275,18.551,2.562,25.61c2.91,6.24,4.563,13.314,4.563,20.82
		c0,0,0.141,3.547-1.046,9.005c3.917,2.763,9.078,8.689,5.825,19.752c-4.949,16.825-23.753,21.114-23.753,21.114l-4.951-5.867
		c-4.758,3.707-10.457,7.227-17.295,10.35v0.002h-0.003h-0.001v-0.002c-6.838-3.123-12.537-6.645-17.297-10.352l-4.951,5.869
		c0,0-18.805-4.289-23.751-21.114c-3.254-11.063,1.907-16.99,5.824-19.754c-1.186-5.458-1.046-9.003-1.046-9.003
		c0-7.524,1.662-14.614,4.586-20.866c-1.704-7.052-2.088-16.2,2.574-25.564l0.01-0.006c6.557,0.404,12.037,2.495,16.516,5.229
		c5.32-2.768,11.261-4.323,17.535-4.327h0.001h0.003c6.281,0.004,12.229,1.563,17.554,4.336
		C178.207,25.508,183.692,23.414,190.256,23.009 M122.117,18.009c-0.904,0-1.794,0.245-2.572,0.712
		c-0.819,0.491-1.489,1.212-1.913,2.065c-4.14,8.315-5.284,17.705-3.339,27.261c-2.875,6.701-4.336,13.863-4.346,21.32
		c-0.018,0.642-0.035,3.228,0.586,7.105c-5.981,5.682-7.868,13.938-5.161,23.141c5.708,19.414,26.552,24.375,27.436,24.578
		c0.37,0.084,0.743,0.125,1.112,0.125c1.455,0,2.859-0.637,3.821-1.775l1.941-2.303c4.342,2.988,9.12,5.684,14.261,8.041
		c0.67,0.334,1.426,0.521,2.225,0.521c0.787,0,1.532-0.182,2.195-0.506c5.154-2.361,9.943-5.062,14.291-8.057l1.941,2.303
		c0.962,1.139,2.368,1.775,3.822,1.775c0.369,0,0.742-0.041,1.111-0.125c0.885-0.203,21.729-5.164,27.438-24.578
		c2.706-9.203,0.819-17.458-5.162-23.14c0.623-3.877,0.604-6.463,0.586-7.107c-0.009-7.436-1.463-14.581-4.323-21.268
		c1.961-9.574,0.82-18.983-3.324-27.311c-0.457-0.919-1.187-1.674-2.087-2.164c-0.736-0.401-1.569-0.614-2.406-0.614
		c-0.101,0-0.201,0.003-0.302,0.009c-5.778,0.357-11.286,1.898-16.411,4.59c-5.513-2.452-11.341-3.693-17.363-3.697
		c-6.024,0.004-11.848,1.243-17.354,3.689c-5.122-2.687-10.625-4.226-16.396-4.582C122.322,18.012,122.219,18.009,122.117,18.009"/>
	<path fill="#FFFFFF" d="M134.38,83.019c-12.293,0-22.294-10.001-22.294-22.293c0-2.325,0.351-4.594,1.043-6.743
		c2.94-9.297,11.481-15.551,21.251-15.551c9.766,0,18.307,6.254,21.253,15.563c0.688,2.139,1.04,4.408,1.04,6.731
		C156.673,73.018,146.672,83.019,134.38,83.019"/>
	<path fill="#343434" d="M134.38,40.932c8.84,0,16.334,5.807,18.869,13.817c0.607,1.886,0.924,3.891,0.924,5.976
		c0,10.927-8.867,19.794-19.793,19.794c-10.929,0-19.794-8.867-19.794-19.794c0-2.085,0.314-4.09,0.923-5.976
		C118.043,46.739,125.539,40.932,134.38,40.932 M134.38,35.932c-10.863,0-20.363,6.956-23.64,17.309
		c-0.763,2.373-1.154,4.899-1.154,7.484c0,13.672,11.122,24.794,24.794,24.794c13.671,0,24.793-11.122,24.793-24.794
		c0-2.583-0.393-5.109-1.164-7.509C154.739,42.888,145.241,35.932,134.38,35.932"/>
	<path fill="#343434" d="M177.966,83.019c-12.301,0-22.31-10.001-22.31-22.293c0-2.316,0.352-4.584,1.043-6.741
		c2.944-9.299,11.491-15.553,21.267-15.553c9.761,0,18.307,6.253,21.266,15.56c0.683,2.172,1.027,4.435,1.027,6.734
		C200.259,73.018,190.258,83.019,177.966,83.019"/>
	<path fill="#343434" d="M177.966,40.932c8.842,0,16.336,5.807,18.883,13.817c0.593,1.886,0.91,3.891,0.91,5.976
		c0,10.927-8.867,19.794-19.793,19.794c-10.94,0-19.81-8.867-19.81-19.794c0-2.085,0.319-4.09,0.925-5.976
		C161.616,46.739,169.112,40.932,177.966,40.932 M177.966,35.932c-10.87,0-20.375,6.956-23.651,17.308
		c-0.766,2.385-1.158,4.91-1.158,7.485c0,13.672,11.129,24.794,24.81,24.794c13.671,0,24.793-11.122,24.793-24.794
		c0-2.553-0.384-5.068-1.142-7.475C198.323,42.885,188.82,35.932,177.966,35.932"/>
	<path fill="#FFFFFF" d="M154.173,60.726c0,10.927-8.867,19.793-19.793,19.793c-10.929,0-19.794-8.867-19.794-19.793
		c0-2.085,0.315-4.09,0.923-5.977c2.534-8.01,10.029-13.816,18.871-13.816c8.84,0,16.334,5.806,18.869,13.816
		C153.857,56.636,154.173,58.641,154.173,60.726"/>
	<path fill="#FFFFFF" d="M197.759,60.726c0,10.927-8.867,19.793-19.793,19.793c-10.94,0-19.81-8.867-19.81-19.793
		c0-2.085,0.319-4.09,0.924-5.977c2.535-8.01,10.031-13.816,18.886-13.816c8.842,0,16.336,5.806,18.883,13.816
		C197.442,56.636,197.759,58.641,197.759,60.726"/>
	<path fill="#FFFFFF" d="M156.189,94.347c7.645-3.329,6.973-9.514,6.973-9.514c-1.625-3.232-5.432-4.086-6.973-4.301h-0.005
		c-1.543,0.215-5.348,1.068-6.975,4.301c0,0-0.671,6.185,6.975,9.514H156.189z"/>
	<path fill="#D0D2D3" d="M156.865,53.967c1.754-2.116,3.914-3.966,6.428-5.417c11.475-6.626,26.155-2.694,32.781,8.784
		c1.396,2.419,2.336,4.98,2.799,7.586c0.596-4.592-0.267-9.402-2.755-13.713c-1.153-1.999-2.568-3.763-4.184-5.225
		c-6.87-6.276-17.263-7.689-25.741-2.793C161.804,45.722,158.612,49.565,156.865,53.967"/>
	<path fill="#00ADEE" d="M147.625,62.729c0,7.316-5.932,13.246-13.247,13.246s-13.246-5.93-13.246-13.246
		c0-7.315,5.931-13.246,13.246-13.246S147.625,55.414,147.625,62.729"/>
	<path fill="#00ADEE" d="M191.205,62.729c0,7.316-5.931,13.246-13.246,13.246c-7.317,0-13.245-5.93-13.245-13.246
		c0-7.315,5.928-13.246,13.245-13.246C185.274,49.482,191.205,55.414,191.205,62.729"/>
	<path fill="#FFFFFF" d="M136.122,59.969c0,2.551-2.07,4.619-4.618,4.619c-2.552,0-4.619-2.068-4.619-4.619
		c0-2.552,2.067-4.619,4.619-4.619C134.051,55.35,136.122,57.417,136.122,59.969"/>
	<path fill="#FFFFFF" d="M179.701,59.969c0,2.551-2.067,4.619-4.619,4.619c-2.549,0-4.618-2.068-4.618-4.619
		c0-2.552,2.069-4.619,4.618-4.619C177.633,55.35,179.701,57.417,179.701,59.969"/>
	<path fill="#D0D2D3" d="M155.474,53.967c-1.754-2.116-3.914-3.966-6.428-5.417c-11.476-6.626-26.155-2.694-32.781,8.784
		c-1.396,2.419-2.336,4.98-2.799,7.586c-0.597-4.592,0.267-9.402,2.755-13.713c1.152-1.999,2.568-3.763,4.183-5.225
		c6.871-6.276,17.263-7.689,25.742-2.793C150.534,45.722,153.727,49.565,155.474,53.967"/>
	<path fill="#343434" d="M134.38,40.932c8.84,0,16.334,5.807,18.869,13.817c0.607,1.886,0.924,3.891,0.924,5.976
		c0,10.927-8.867,19.794-19.793,19.794c-10.929,0-19.794-8.867-19.794-19.794c0-2.085,0.314-4.09,0.923-5.976
		C118.043,46.739,125.539,40.932,134.38,40.932 M134.38,36.932c-10.426,0-19.542,6.675-22.686,16.61
		c-0.733,2.279-1.108,4.703-1.108,7.183c0,13.12,10.674,23.794,23.794,23.794c13.119,0,23.793-10.674,23.793-23.794
		c0-2.479-0.376-4.902-1.116-7.202C153.918,43.607,144.803,36.932,134.38,36.932"/>
	<path fill="#343434" d="M177.966,40.932c8.842,0,16.336,5.807,18.883,13.817c0.593,1.886,0.91,3.891,0.91,5.976
		c0,10.927-8.867,19.794-19.793,19.794c-10.94,0-19.81-8.867-19.81-19.794c0-2.085,0.319-4.09,0.925-5.976
		C161.616,46.739,169.112,40.932,177.966,40.932 M177.966,36.932c-10.434,0-19.554,6.675-22.698,16.61
		c-0.736,2.29-1.111,4.712-1.111,7.183c0,13.12,10.682,23.794,23.81,23.794c13.119,0,23.793-10.674,23.793-23.794
		c0-2.451-0.368-4.865-1.094-7.175C197.503,43.605,188.383,36.932,177.966,36.932"/>
</g>
</svg>
